<svg width="170" height="33" viewBox="0 0 170 33" fill="none" xmlns="http://www.w3.org/2000/svg">
<path d="M44.5679 9.7627H55.2384C58.1213 9.7627 60.4293 10.867 60.4293 14.1212C60.4293 17.3364 58.0459 18.4406 55.1996 18.4211H53.9508L60.9891 23.3241H58.5627L51.7612 18.4797H46.1073V23.3241H44.5679V9.7627ZM55.2211 17.0326C57.2579 17.0326 58.8555 16.2972 58.8555 14.1277C58.8555 11.9582 57.2967 11.2228 55.2793 11.2228H46.1073V17.0326H55.2211Z" fill="white"/>
<path d="M62.8149 23.3241V9.7627H77.4083V11.2162H64.3544V15.6138H76.2542V17.0652H64.3544V21.8706H77.7915V23.3241H62.8149Z" fill="white"/>
<path d="M94.7121 9.7627H96.2408V23.3241H94.7121L81.6948 11.7196L81.7336 13.5007V23.3241H80.1963V9.7627H81.7034L94.7336 21.3716L94.7143 19.4711L94.7121 9.7627Z" fill="white"/>
<path d="M99.04 23.3241V9.7627H105.635C112.632 9.7627 115.554 12.5136 115.554 16.5423C115.554 20.5711 112.63 23.3241 105.633 23.3241H99.04ZM100.577 11.2184V21.8706H105.635C111.594 21.8706 113.978 19.777 113.978 16.5423C113.978 13.3076 111.592 11.2162 105.633 11.2162L100.577 11.2184Z" fill="white"/>
<path d="M117.957 23.3241V9.7627H132.548V11.2162H119.494V15.6138H131.396V17.0652H119.494V21.8706H132.933V23.3241H117.957Z" fill="white"/>
<path d="M135.336 9.7627H146.006C148.892 9.7627 151.197 10.867 151.197 14.1212C151.197 17.3364 148.814 18.4406 145.968 18.4211H144.719L151.755 23.3241H149.333L142.531 18.4797H136.875V23.3241H135.336V9.7627ZM145.987 17.0326C148.026 17.0326 149.621 16.2972 149.621 14.1277C149.621 11.9582 148.065 11.2228 146.045 11.2228H136.875V17.0326H145.987Z" fill="white"/>
<path d="M153.583 9.7627H164.253C167.136 9.7627 169.442 10.867 169.442 14.1212C169.442 17.3364 167.059 18.4406 164.215 18.4211H162.964L170 23.3241H167.578L160.772 18.4797H155.12V23.3241H153.583V9.7627ZM164.234 17.0326C166.271 17.0326 167.866 16.2972 167.866 14.1277C167.866 11.9582 166.31 11.2228 164.29 11.2228H155.12V17.0326H164.234Z" fill="white"/>
<mask id="mask0_45_4917" style="mask-type:luminance" maskUnits="userSpaceOnUse" x="0" y="0" width="9" height="33">
<path d="M0.0129183 0C0 0.216948 0 0.4621 0 0.698573C0 5.16988 1.44039 7.50207 2.71283 9.56091C3.86902 11.4375 4.86588 13.0581 4.86588 16.4772C4.86588 19.8963 3.87548 21.5169 2.71283 23.3957C1.44039 25.4524 0 27.7846 0 32.2559C0 32.5054 0 32.7505 0.0129183 32.9892H3.67309C3.66017 32.7592 3.66017 32.5097 3.66017 32.2559C3.66017 28.8368 4.66349 27.2162 5.81322 25.3374C7.08351 23.2807 8.52605 20.9485 8.52605 16.4881C8.52605 12.0276 7.08351 9.67589 5.81322 7.61705C4.65703 5.74045 3.66017 4.12202 3.66017 0.698573C3.66017 0.457761 3.66017 0.216948 3.67094 0H0.0129183Z" fill="white"/>
</mask>
<g mask="url(#mask0_45_4917)">
<mask id="mask1_45_4917" style="mask-type:luminance" maskUnits="userSpaceOnUse" x="-1" y="-1" width="11" height="35">
<path d="M8.52549 -0.158063L-0.604004 0.012146L0.00444043 33.1475L9.13393 32.9773L8.52549 -0.158063Z" fill="white"/>
</mask>
<g mask="url(#mask1_45_4917)">
<path d="M2.02173 -0.158386L2.63535 33.1475H-0.60498V-0.158386H2.02173Z" fill="#6B54EA"/>
<path d="M2.13178 -0.158386L2.74324 33.1475H2.63559L2.02197 -0.158386H2.13178Z" fill="#6B54EA"/>
<path d="M2.239 -0.158386L2.85046 33.1475H2.74281L2.13135 -0.158386H2.239Z" fill="#6C54E9"/>
<path d="M2.34691 -0.158386L2.95837 33.1475H2.85072L2.23926 -0.158386H2.34691Z" fill="#6D53E8"/>
<path d="M2.45433 -0.158386L3.0658 33.1475H2.95814L2.34668 -0.158386H2.45433Z" fill="#6E53E7"/>
<path d="M2.56224 -0.158386L3.17586 33.1475H3.06605L2.45459 -0.158386H2.56224Z" fill="#6E53E6"/>
<path d="M2.66966 -0.158386L3.28328 33.1475H3.17563L2.56201 -0.158386H2.66966Z" fill="#6F52E5"/>
<path d="M2.77973 -0.158386L3.39119 33.1475H3.28354L2.66992 -0.158386H2.77973Z" fill="#7052E4"/>
<path d="M2.88744 -0.158386L3.4989 33.1475H3.39125L2.77979 -0.158386H2.88744Z" fill="#7151E3"/>
<path d="M2.99486 -0.158386L3.60632 33.1475H3.49867L2.88721 -0.158386H2.99486Z" fill="#7251E2"/>
<path d="M3.10277 -0.158386L3.71639 33.1475H3.60658L2.99512 -0.158386H3.10277Z" fill="#7351E1"/>
<path d="M3.21019 -0.158386L3.82381 33.1475H3.71616L3.10254 -0.158386H3.21019Z" fill="#7450E0"/>
<path d="M3.32025 -0.158386L3.93172 33.1475H3.82407L3.21045 -0.158386H3.32025Z" fill="#7450DF"/>
<path d="M3.42748 -0.158386L4.03894 33.1475H3.93129L3.31982 -0.158386H3.42748Z" fill="#7550DE"/>
<path d="M3.53539 -0.158386L4.14685 33.1475H4.0392L3.42773 -0.158386H3.53539Z" fill="#764FDD"/>
<path d="M3.64281 -0.158386L4.25427 33.1475H4.14662L3.53516 -0.158386H3.64281Z" fill="#774FDC"/>
<path d="M3.75072 -0.158386L4.36434 33.1475H4.25453L3.64307 -0.158386H3.75072Z" fill="#784EDB"/>
<path d="M3.86029 -0.158386L4.47176 33.1475H4.36411L3.75049 -0.158386H3.86029Z" fill="#794EDA"/>
<path d="M3.968 -0.158386L4.57947 33.1475H4.47182L3.86035 -0.158386H3.968Z" fill="#7A4ED9"/>
<path d="M4.07591 -0.158386L4.68738 33.1475H4.57973L3.96826 -0.158386H4.07591Z" fill="#7A4DD8"/>
<path d="M4.18334 -0.158386L4.79695 33.1475H4.68715L4.07568 -0.158386H4.18334Z" fill="#7B4DD7"/>
<path d="M4.29125 -0.158386L4.90486 33.1475H4.79721L4.18359 -0.158386H4.29125Z" fill="#7C4DD6"/>
<path d="M4.40082 -0.158386L5.01229 33.1475H4.90463L4.29102 -0.158386H4.40082Z" fill="#7D4CD5"/>
<path d="M4.50853 -0.158386L5.12 33.1475H5.01234L4.40088 -0.158386H4.50853Z" fill="#7E4CD4"/>
<path d="M4.61595 -0.158386L5.22742 33.1475H5.11977L4.5083 -0.158386H4.61595Z" fill="#7F4BD3"/>
<path d="M4.72386 -0.158386L5.33533 33.1475H5.22768L4.61621 -0.158386H4.72386Z" fill="#7F4BD2"/>
<path d="M4.83128 -0.158386L5.4449 33.1475H5.3351L4.72363 -0.158386H4.83128Z" fill="#804BD1"/>
<path d="M4.94135 -0.158386L5.55281 33.1475H5.44516L4.83154 -0.158386H4.94135Z" fill="#814AD0"/>
<path d="M5.04906 -0.158386L5.66052 33.1475H5.55287L4.94141 -0.158386H5.04906Z" fill="#824ACF"/>
<path d="M5.15648 -0.158386L5.76794 33.1475H5.66029L5.04883 -0.158386H5.15648Z" fill="#834ACE"/>
<path d="M5.26439 -0.158386L5.87801 33.1475H5.7682L5.15674 -0.158386H5.26439Z" fill="#8449CD"/>
<path d="M5.37181 -0.158386L5.98543 33.1475H5.87778L5.26416 -0.158386H5.37181Z" fill="#8549CC"/>
<path d="M5.48188 -0.158386L6.09334 33.1475H5.98569L5.37207 -0.158386H5.48188Z" fill="#8548CB"/>
<path d="M5.5891 -0.158386L6.20056 33.1475H6.09291L5.48145 -0.158386H5.5891Z" fill="#8648CA"/>
<path d="M5.69701 -0.158386L6.30847 33.1475H6.20082L5.58936 -0.158386H5.69701Z" fill="#8748C9"/>
<path d="M5.80443 -0.158386L6.41589 33.1475H6.30824L5.69678 -0.158386H5.80443Z" fill="#8847C8"/>
<path d="M5.91234 -0.158386L6.52596 33.1475H6.41615L5.80469 -0.158386H5.91234Z" fill="#8947C7"/>
<path d="M6.01976 -0.158386L6.63338 33.1475H6.52573L5.91211 -0.158386H6.01976Z" fill="#8A47C6"/>
<path d="M6.12982 -0.158386L6.74129 33.1475H6.63364L6.02002 -0.158386H6.12982Z" fill="#8B46C5"/>
<path d="M6.23753 -0.158386L6.849 33.1475H6.74135L6.12988 -0.158386H6.23753Z" fill="#8B46C4"/>
<path d="M6.34496 -0.158386L6.95642 33.1475H6.84877L6.2373 -0.158386H6.34496Z" fill="#8C45C3"/>
<path d="M6.45287 -0.158386L7.06648 33.1475H6.95668L6.34521 -0.158386H6.45287Z" fill="#8D45C2"/>
<path d="M6.56029 -0.158386L7.17391 33.1475H7.06625L6.45264 -0.158386H6.56029Z" fill="#8E45C1"/>
<path d="M6.67035 -0.158386L7.28182 33.1475H7.17416L6.56055 -0.158386H6.67035Z" fill="#8F44C0"/>
<path d="M6.77757 -0.158386L7.38904 33.1475H7.28139L6.66992 -0.158386H6.77757Z" fill="#9044BF"/>
<path d="M6.88548 -0.158386L7.49695 33.1475H7.3893L6.77783 -0.158386H6.88548Z" fill="#9144BE"/>
<path d="M6.99291 -0.158386L7.60652 33.1475H7.49672L6.88525 -0.158386H6.99291Z" fill="#9143BD"/>
<path d="M7.10297 -0.158386L7.71443 33.1475H7.60678L6.99316 -0.158386H7.10297Z" fill="#9243BC"/>
<path d="M7.21068 -0.158386L7.82214 33.1475H7.71449L7.10303 -0.158386H7.21068Z" fill="#9342BB"/>
<path d="M7.3181 -0.158386L7.92957 33.1475H7.82191L7.21045 -0.158386H7.3181Z" fill="#9442BA"/>
<path d="M7.42601 -0.158386L8.03748 33.1475H7.92982L7.31836 -0.158386H7.42601Z" fill="#9542B9"/>
<path d="M7.53343 -0.158386L8.14705 33.1475H8.03725L7.42578 -0.158386H7.53343Z" fill="#9641B8"/>
<path d="M7.64134 -0.158386L8.25496 33.1475H8.14731L7.53369 -0.158386H7.64134Z" fill="#9741B7"/>
<path d="M7.75092 -0.158386L8.36238 33.1475H8.25473L7.64111 -0.158386H7.75092Z" fill="#9741B6"/>
<path d="M7.85863 -0.158386L8.47009 33.1475H8.36244L7.75098 -0.158386H7.85863Z" fill="#9840B5"/>
<path d="M7.96605 -0.158386L8.57751 33.1475H8.46986L7.8584 -0.158386H7.96605Z" fill="#9940B4"/>
<path d="M8.07396 -0.158386L8.68758 33.1475H8.57777L7.96631 -0.158386H8.07396Z" fill="#9A3FB3"/>
<path d="M8.18138 -0.158386L8.795 33.1475H8.68735L8.07373 -0.158386H8.18138Z" fill="#9B3FB2"/>
<path d="M8.29145 -0.158386L8.90291 33.1475H8.79526L8.18164 -0.158386H8.29145Z" fill="#9C3FB1"/>
<path d="M8.39916 -0.158386L9.01062 33.1475H8.90297L8.2915 -0.158386H8.39916Z" fill="#9D3EB0"/>
<path d="M8.50658 -0.158386L9.11804 33.1475H9.01039L8.39893 -0.158386H8.50658Z" fill="#9D3EAF"/>
<path d="M8.61449 -0.158386L9.13337 28.0189V33.1475H9.1183L8.50684 -0.158386H8.61449Z" fill="#9E3EAE"/>
</g>
</g>
<mask id="mask2_45_4917" style="mask-type:luminance" maskUnits="userSpaceOnUse" x="4" y="0" width="10" height="33">
<path d="M4.97337 0C4.97337 0.216948 4.96045 0.457761 4.96045 0.698573C4.96045 5.10045 6.38576 7.40444 7.63668 9.43291C8.82732 11.3442 9.83279 12.9887 9.83279 16.4881C9.83279 19.9874 8.82732 21.6124 7.63668 23.5215C6.38576 25.5522 4.96045 27.8605 4.96045 32.2559C4.96045 32.5054 4.96045 32.7505 4.97337 32.9892H8.15987C8.15987 32.7548 8.1448 32.5097 8.1448 32.2559C8.1448 28.7717 9.15888 27.1229 10.3409 25.2116C11.594 23.1831 13.015 20.8726 13.015 16.4772C13.015 12.0818 11.594 9.77352 10.3344 7.74071C9.15242 5.83374 8.13834 4.18493 8.13834 0.698573C8.13834 0.457761 8.13834 0.225626 8.15341 0L4.97337 0Z" fill="white"/>
</mask>
<g mask="url(#mask2_45_4917)">
<mask id="mask3_45_4917" style="mask-type:luminance" maskUnits="userSpaceOnUse" x="4" y="-1" width="10" height="35">
<path d="M13.0135 -0.148419L4.35547 0.0130005L4.96375 33.1397L13.6218 32.9783L13.0135 -0.148419Z" fill="white"/>
</mask>
<g mask="url(#mask3_45_4917)">
<path d="M4.40068 -0.149658L5.01215 33.1389H4.90449L4.35547 3.34321V-0.149658H4.40068Z" fill="#7D4CD5"/>
<path d="M4.50853 -0.149658L5.12 33.1389H5.01234L4.40088 -0.149658H4.50853Z" fill="#7E4CD4"/>
<path d="M4.61595 -0.149658L5.22742 33.1389H5.11977L4.5083 -0.149658H4.61595Z" fill="#7F4BD3"/>
<path d="M4.72386 -0.149658L5.33533 33.1389H5.22768L4.61621 -0.149658H4.72386Z" fill="#7F4BD2"/>
<path d="M4.83128 -0.149658L5.4449 33.1389H5.3351L4.72363 -0.149658H4.83128Z" fill="#804BD1"/>
<path d="M4.94086 -0.149658L5.55232 33.1389H5.44467L4.83105 -0.149658H4.94086Z" fill="#814AD0"/>
<path d="M5.04857 -0.149658L5.66003 33.1389H5.55238L4.94092 -0.149658H5.04857Z" fill="#824ACF"/>
<path d="M5.15648 -0.149658L5.76794 33.1389H5.66029L5.04883 -0.149658H5.15648Z" fill="#834ACE"/>
<path d="M5.2639 -0.149658L5.87537 33.1389H5.76771L5.15625 -0.149658H5.2639Z" fill="#8449CD"/>
<path d="M5.37181 -0.149658L5.98543 33.1389H5.87562L5.26416 -0.149658H5.37181Z" fill="#8549CC"/>
<path d="M5.48139 -0.149658L6.09285 33.1389H5.9852L5.37158 -0.149658H5.48139Z" fill="#8548CB"/>
<path d="M5.5891 -0.149658L6.20056 33.1389H6.09291L5.48145 -0.149658H5.5891Z" fill="#8648CA"/>
<path d="M5.69701 -0.149658L6.30847 33.1389H6.20082L5.58936 -0.149658H5.69701Z" fill="#8748C9"/>
<path d="M5.80443 -0.149658L6.41589 33.1389H6.30824L5.69678 -0.149658H5.80443Z" fill="#8847C8"/>
<path d="M5.91234 -0.149658L6.52596 33.1389H6.41615L5.80469 -0.149658H5.91234Z" fill="#8947C7"/>
<path d="M6.02191 -0.149658L6.63338 33.1389H6.52573L5.91211 -0.149658H6.02191Z" fill="#8A47C6"/>
<path d="M6.12962 -0.149658L6.74109 33.1389H6.63344L6.02197 -0.149658H6.12962Z" fill="#8B46C5"/>
<path d="M6.23705 -0.149658L6.84851 33.1389H6.74086L6.12939 -0.149658H6.23705Z" fill="#8B46C4"/>
<path d="M6.34496 -0.149658L6.95642 33.1389H6.84877L6.2373 -0.149658H6.34496Z" fill="#8C45C3"/>
<path d="M6.45238 -0.149658L7.066 33.1389H6.95619L6.34473 -0.149658H6.45238Z" fill="#8D45C2"/>
<path d="M6.56244 -0.149658L7.17391 33.1389H7.06625L6.45264 -0.149658H6.56244Z" fill="#8E45C1"/>
<path d="M6.67015 -0.149658L7.28162 33.1389H7.17396L6.5625 -0.149658H6.67015Z" fill="#8F44C0"/>
<path d="M6.77757 -0.149658L7.38904 33.1389H7.28139L6.66992 -0.149658H6.77757Z" fill="#9044BF"/>
<path d="M6.88548 -0.149658L7.49695 33.1389H7.3893L6.77783 -0.149658H6.88548Z" fill="#9144BE"/>
<path d="M6.99291 -0.149658L7.60437 33.1389H7.49672L6.88525 -0.149658H6.99291Z" fill="#9143BD"/>
<path d="M7.10297 -0.149658L7.71443 33.1389H7.60463L6.99316 -0.149658H7.10297Z" fill="#9243BC"/>
<path d="M7.21019 -0.149658L7.82166 33.1389H7.714L7.10254 -0.149658H7.21019Z" fill="#9342BB"/>
<path d="M7.3181 -0.149658L7.92957 33.1389H7.82191L7.21045 -0.149658H7.3181Z" fill="#9442BA"/>
<path d="M7.42552 -0.149658L8.03699 33.1389H7.92934L7.31787 -0.149658H7.42552Z" fill="#9542B9"/>
<path d="M7.53343 -0.149658L8.14705 33.1389H8.03725L7.42578 -0.149658H7.53343Z" fill="#9641B8"/>
<path d="M7.64301 -0.149658L8.25447 33.1389H8.14682L7.5332 -0.149658H7.64301Z" fill="#9741B7"/>
<path d="M7.75072 -0.149658L8.36218 33.1389H8.25453L7.64307 -0.149658H7.75072Z" fill="#9741B6"/>
<path d="M7.85863 -0.149658L8.47009 33.1389H8.36244L7.75098 -0.149658H7.85863Z" fill="#9840B5"/>
<path d="M7.96605 -0.149658L8.57751 33.1389H8.46986L7.8584 -0.149658H7.96605Z" fill="#9940B4"/>
<path d="M8.07396 -0.149658L8.68758 33.1389H8.57777L7.96631 -0.149658H8.07396Z" fill="#9A3FB3"/>
<path d="M8.18138 -0.149658L8.795 33.1389H8.68735L8.07373 -0.149658H8.18138Z" fill="#9B3FB2"/>
<path d="M8.29145 -0.149658L8.90291 33.1389H8.79526L8.18164 -0.149658H8.29145Z" fill="#9C3FB1"/>
<path d="M8.39867 -0.149658L9.01013 33.1389H8.90248L8.29102 -0.149658H8.39867Z" fill="#9D3EB0"/>
<path d="M8.50658 -0.149658L9.11804 33.1389H9.01039L8.39893 -0.149658H8.50658Z" fill="#9D3EAF"/>
<path d="M8.614 -0.149658L9.22546 33.1389H9.11781L8.50635 -0.149658H8.614Z" fill="#9E3EAE"/>
<path d="M8.72406 -0.149658L9.33553 33.1389H9.22572L8.61426 -0.149658H8.72406Z" fill="#9F3DAD"/>
<path d="M8.83177 -0.149658L9.44324 33.1389H9.33559L8.72412 -0.149658H8.83177Z" fill="#A03DAC"/>
<path d="M8.9392 -0.149658L9.55066 33.1389H9.44301L8.83154 -0.149658H8.9392Z" fill="#A13CAB"/>
<path d="M9.04711 -0.149658L9.65857 33.1389H9.55092L8.93945 -0.149658H9.04711Z" fill="#A23CAA"/>
<path d="M9.15453 -0.149658L9.76599 33.1389H9.65834L9.04688 -0.149658H9.15453Z" fill="#A23CA9"/>
<path d="M9.26459 -0.149658L9.87605 33.1389H9.76625L9.15479 -0.149658H9.26459Z" fill="#A33BA8"/>
<path d="M9.3723 -0.149658L9.98376 33.1389H9.87611L9.26465 -0.149658H9.3723Z" fill="#A43BA7"/>
<path d="M9.47972 -0.149658L10.0912 33.1389H9.98354L9.37207 -0.149658H9.47972Z" fill="#A53BA6"/>
<path d="M9.58714 -0.149658L10.1986 33.1389H10.091L9.47949 -0.149658H9.58714Z" fill="#A63AA5"/>
<path d="M9.69505 -0.149658L10.3065 33.1389H10.1989L9.5874 -0.149658H9.69505Z" fill="#A73AA4"/>
<path d="M9.80248 -0.149658L10.4161 33.1389H10.3063L9.69482 -0.149658H9.80248Z" fill="#A839A3"/>
<path d="M9.91254 -0.149658L10.524 33.1389H10.4164L9.80273 -0.149658H9.91254Z" fill="#A839A1"/>
<path d="M10.0202 -0.149658L10.6317 33.1389H10.5241L9.9126 -0.149658H10.0202Z" fill="#A939A0"/>
<path d="M10.1277 -0.149658L10.7391 33.1389H10.6315L10.02 -0.149658H10.1277Z" fill="#AA389F"/>
<path d="M10.2356 -0.149658L10.847 33.1389H10.7394L10.1279 -0.149658H10.2356Z" fill="#AB389E"/>
<path d="M10.343 -0.149658L10.9566 33.1389H10.8468L10.2354 -0.149658H10.343Z" fill="#AC389D"/>
<path d="M10.4531 -0.149658L11.0645 33.1389H10.9569L10.3433 -0.149658H10.4531Z" fill="#AD379C"/>
<path d="M10.5608 -0.149658L11.1722 33.1389H11.0646L10.4531 -0.149658H10.5608Z" fill="#AE379B"/>
<path d="M10.6682 -0.149658L11.2797 33.1389H11.172L10.5605 -0.149658H10.6682Z" fill="#AE369A"/>
<path d="M10.7756 -0.149658L11.3871 33.1389H11.2794L10.668 -0.149658H10.7756Z" fill="#AF3699"/>
<path d="M10.8835 -0.149658L11.4971 33.1389H11.3873L10.7759 -0.149658H10.8835Z" fill="#B03698"/>
<path d="M10.9931 -0.149658L11.6046 33.1389H11.4969L10.8833 -0.149658H10.9931Z" fill="#B13597"/>
<path d="M11.1008 -0.149658L11.7123 33.1389H11.6046L10.9932 -0.149658H11.1008Z" fill="#B23596"/>
<path d="M11.2087 -0.149658L11.8202 33.1389H11.7125L11.1011 -0.149658H11.2087Z" fill="#B33595"/>
<path d="M11.3161 -0.149658L11.9276 33.1389H11.82L11.2085 -0.149658H11.3161Z" fill="#B43494"/>
<path d="M11.4241 -0.149658L12.0377 33.1389H11.9279L11.3164 -0.149658H11.4241Z" fill="#B43493"/>
<path d="M11.5336 -0.149658L12.1451 33.1389H12.0374L11.4238 -0.149658H11.5336Z" fill="#B53492"/>
<path d="M11.6413 -0.149658L12.2528 33.1389H12.1452L11.5337 -0.149658H11.6413Z" fill="#B63391"/>
<path d="M11.7493 -0.149658L12.3607 33.1389H12.2531L11.6416 -0.149658H11.7493Z" fill="#B73390"/>
<path d="M11.8567 -0.149658L12.4681 33.1389H12.3605L11.749 -0.149658H11.8567Z" fill="#B8328F"/>
<path d="M11.9641 -0.149658L12.5777 33.1389H12.4679L11.8564 -0.149658H11.9641Z" fill="#B9328E"/>
<path d="M12.0742 -0.149658L12.6856 33.1389H12.578L11.9644 -0.149658H12.0742Z" fill="#BA328D"/>
<path d="M12.1819 -0.149658L12.7933 33.1389H12.6857L12.0742 -0.149658H12.1819Z" fill="#BA318C"/>
<path d="M12.2893 -0.149658L12.9008 33.1389H12.7931L12.1816 -0.149658H12.2893Z" fill="#BB318B"/>
<path d="M12.3972 -0.149658L13.0087 33.1389H12.901L12.2896 -0.149658H12.3972Z" fill="#BC318A"/>
<path d="M12.5046 -0.149658L13.1161 33.1389H13.0084L12.397 -0.149658H12.5046Z" fill="#BD3089"/>
<path d="M12.6147 -0.149658L13.2262 33.1389H13.1163L12.5049 -0.149658H12.6147Z" fill="#BE3088"/>
<path d="M12.7224 -0.149658L13.3339 33.1389H13.2262L12.6147 -0.149658H12.7224Z" fill="#BF2F87"/>
<path d="M12.8298 -0.149658L13.4413 33.1389H13.3336L12.7222 -0.149658H12.8298Z" fill="#C02F86"/>
<path d="M12.9377 -0.149658L13.5492 33.1389H13.4415L12.8301 -0.149658H12.9377Z" fill="#C02F85"/>
<path d="M13.0452 -0.149658L13.6222 31.2384V33.1389H13.549L12.9375 -0.149658H13.0452Z" fill="#C12E84"/>
</g>
</g>
<mask id="mask4_45_4917" style="mask-type:luminance" maskUnits="userSpaceOnUse" x="9" y="0" width="9" height="33">
<path d="M9.93821 0C9.93821 0.216948 9.92529 0.457761 9.92529 0.698573C9.92529 5.03754 11.3269 7.30682 12.5649 9.30708C13.762 11.2466 14.7976 12.9236 14.7976 16.4881C14.7976 20.0525 13.762 21.7165 12.5649 23.6474C11.3269 25.652 9.92529 27.9212 9.92529 32.258C9.92529 32.5075 9.92529 32.7527 9.94252 32.9913H12.6467C12.6338 32.7527 12.6295 32.5119 12.6295 32.258C12.6295 28.7044 13.6651 27.0296 14.8622 25.0987C16.1002 23.0941 17.5019 20.8184 17.5019 16.4859C17.5019 12.1534 16.1002 9.87115 14.8558 7.86654C13.6587 5.92703 12.6231 4.25436 12.6231 0.707251C12.6231 0.466439 12.6231 0.234304 12.6403 0.00867793L9.93821 0Z" fill="white"/>
</mask>
<g mask="url(#mask4_45_4917)">
<mask id="mask5_45_4917" style="mask-type:luminance" maskUnits="userSpaceOnUse" x="9" y="-1" width="10" height="35">
<path d="M17.5029 -0.167932L9.32129 -0.00305176L9.97874 33.1206L18.1603 32.9557L17.5029 -0.167932Z" fill="white"/>
</mask>
<g mask="url(#mask5_45_4917)">
<path d="M9.37199 -0.14093L9.98345 33.1303H9.8758L9.32031 2.9918V-0.14093H9.37199Z" fill="#A43BA7"/>
<path d="M9.47972 -0.14093L10.0912 33.1303H9.98353L9.37207 -0.14093H9.47972Z" fill="#A53BA6"/>
<path d="M9.58714 -0.14093L10.1986 33.1303H10.091L9.47949 -0.14093H9.58714Z" fill="#A63AA5"/>
<path d="M9.69505 -0.14093L10.3065 33.1303H10.1989L9.5874 -0.14093H9.69505Z" fill="#A73AA4"/>
<path d="M9.80463 -0.14093L10.4161 33.1303H10.3063L9.69482 -0.14093H9.80463Z" fill="#A839A3"/>
<path d="M9.91234 -0.14093L10.5238 33.1303H10.4162L9.80469 -0.14093H9.91234Z" fill="#A839A1"/>
<path d="M10.0202 -0.14093L10.6317 33.1303H10.5241L9.9126 -0.14093H10.0202Z" fill="#A939A0"/>
<path d="M10.1277 -0.14093L10.7391 33.1303H10.6315L10.02 -0.14093H10.1277Z" fill="#AA389F"/>
<path d="M10.2356 -0.14093L10.847 33.1303H10.7394L10.1279 -0.14093H10.2356Z" fill="#AB389E"/>
<path d="M10.343 -0.14093L10.9566 33.1303H10.8468L10.2354 -0.14093H10.343Z" fill="#AC389D"/>
<path d="M10.4526 -0.14093L11.064 33.1303H10.9564L10.3428 -0.14093H10.4526Z" fill="#AD379C"/>
<path d="M10.5603 -0.14093L11.1718 33.1303H11.0641L10.4526 -0.14093H10.5603Z" fill="#AE379B"/>
<path d="M10.6682 -0.14093L11.2797 33.1303H11.172L10.5605 -0.14093H10.6682Z" fill="#AE369A"/>
<path d="M10.7756 -0.14093L11.3871 33.1303H11.2794L10.668 -0.14093H10.7756Z" fill="#AF3699"/>
<path d="M10.8857 -0.14093L11.495 33.1303H11.3873L10.7759 -0.14093H10.8857Z" fill="#B03698"/>
<path d="M10.9934 -0.14093L11.6049 33.1303H11.4951L10.8857 -0.14093H10.9934Z" fill="#B13597"/>
<path d="M11.1008 -0.14093L11.7123 33.1303H11.6046L10.9932 -0.14093H11.1008Z" fill="#B23596"/>
<path d="M11.2087 -0.14093L11.8202 33.1303H11.7125L11.1011 -0.14093H11.2087Z" fill="#B33595"/>
<path d="M11.3161 -0.14093L11.9276 33.1303H11.82L11.2085 -0.14093H11.3161Z" fill="#B43494"/>
<path d="M11.4262 -0.14093L12.0377 33.1303H11.9279L11.3164 -0.14093H11.4262Z" fill="#B43493"/>
<path d="M11.5334 -0.14093L12.1449 33.1303H12.0372L11.4258 -0.14093H11.5334Z" fill="#B53492"/>
<path d="M11.6413 -0.14093L12.2528 33.1303H12.1452L11.5337 -0.14093H11.6413Z" fill="#B63391"/>
<path d="M11.7488 -0.14093L12.3602 33.1303H12.2526L11.6411 -0.14093H11.7488Z" fill="#B73390"/>
<path d="M11.8567 -0.14093L12.4681 33.1303H12.3605L11.749 -0.14093H11.8567Z" fill="#B8328F"/>
<path d="M11.9641 -0.14093L12.5777 33.1303H12.4679L11.8564 -0.14093H11.9641Z" fill="#B9328E"/>
<path d="M12.0742 -0.14093L12.6856 33.1303H12.578L11.9644 -0.14093H12.0742Z" fill="#BA328D"/>
<path d="M12.1819 -0.14093L12.7933 33.1303H12.6857L12.0742 -0.14093H12.1819Z" fill="#BA318C"/>
<path d="M12.2893 -0.14093L12.9008 33.1303H12.7931L12.1816 -0.14093H12.2893Z" fill="#BB318B"/>
<path d="M12.3972 -0.14093L13.0087 33.1303H12.901L12.2896 -0.14093H12.3972Z" fill="#BC318A"/>
<path d="M12.5068 -0.14093L13.1161 33.1303H13.0084L12.397 -0.14093H12.5068Z" fill="#BD3089"/>
<path d="M12.6145 -0.14093L13.226 33.1303H13.1161L12.5068 -0.14093H12.6145Z" fill="#BE3088"/>
<path d="M12.7219 -0.14093L13.3334 33.1303H13.2257L12.6143 -0.14093H12.7219Z" fill="#BF2F87"/>
<path d="M12.8298 -0.14093L13.4413 33.1303H13.3336L12.7222 -0.14093H12.8298Z" fill="#C02F86"/>
<path d="M12.9372 -0.14093L13.5487 33.1303H13.4411L12.8296 -0.14093H12.9372Z" fill="#C02F85"/>
<path d="M13.0452 -0.14093L13.6566 33.1303H13.549L12.9375 -0.14093H13.0452Z" fill="#C12E84"/>
<path d="M13.1547 -0.14093L13.7662 33.1303H13.6564L13.0449 -0.14093H13.1547Z" fill="#C22E83"/>
<path d="M13.2624 -0.14093L13.8739 33.1303H13.7663L13.1548 -0.14093H13.2624Z" fill="#C32E82"/>
<path d="M13.3703 -0.14093L13.9818 33.1303H13.8742L13.2627 -0.14093H13.3703Z" fill="#C42D81"/>
<path d="M13.4778 -0.14093L14.0892 33.1303H13.9816L13.3701 -0.14093H13.4778Z" fill="#C52D80"/>
<path d="M13.5857 -0.14093L14.1971 33.1303H14.0895L13.478 -0.14093H13.5857Z" fill="#C52C7F"/>
<path d="M13.6953 -0.14093L14.3067 33.1303H14.1969L13.5854 -0.14093H13.6953Z" fill="#C62C7E"/>
<path d="M13.803 -0.14093L14.4144 33.1303H14.3068L13.6953 -0.14093H13.803Z" fill="#C72C7D"/>
<path d="M13.9104 -0.14093L14.5219 33.1303H14.4142L13.8027 -0.14093H13.9104Z" fill="#C82B7C"/>
<path d="M14.0183 -0.14093L14.6298 33.1303H14.5221L13.9106 -0.14093H14.0183Z" fill="#C92B7B"/>
<path d="M14.1257 -0.14093L14.7372 33.1303H14.6295L14.0181 -0.14093H14.1257Z" fill="#CA2B7A"/>
<path d="M14.2358 -0.14093L14.8472 33.1303H14.7374L14.126 -0.14093H14.2358Z" fill="#CB2A79"/>
<path d="M14.3435 -0.14093L14.955 33.1303H14.8473L14.2358 -0.14093H14.3435Z" fill="#CB2A78"/>
<path d="M14.4509 -0.14093L15.0624 33.1303H14.9547L14.3433 -0.14093H14.4509Z" fill="#CC2977"/>
<path d="M14.5588 -0.14093L15.1703 33.1303H15.0626L14.4512 -0.14093H14.5588Z" fill="#CD2976"/>
<path d="M14.6662 -0.14093L15.2777 33.1303H15.1701L14.5586 -0.14093H14.6662Z" fill="#CE2975"/>
<path d="M14.7763 -0.14093L15.3878 33.1303H15.278L14.6665 -0.14093H14.7763Z" fill="#CF2874"/>
<path d="M14.884 -0.14093L15.4955 33.1303H15.3878L14.7764 -0.14093H14.884Z" fill="#D02873"/>
<path d="M14.9914 -0.14093L15.6029 33.1303H15.4953L14.8838 -0.14093H14.9914Z" fill="#D12872"/>
<path d="M15.0989 -0.14093L15.7103 33.1303H15.6027L14.9912 -0.14093H15.0989Z" fill="#D12771"/>
<path d="M15.2068 -0.14093L15.8182 33.1303H15.7106L15.0991 -0.14093H15.2068Z" fill="#D22770"/>
<path d="M15.3163 -0.14093L15.9257 33.1303H15.818L15.2065 -0.14093H15.3163Z" fill="#D3266F"/>
<path d="M15.4241 -0.14093L16.0355 33.1303H15.9257L15.3164 -0.14093H15.4241Z" fill="#D4266E"/>
<path d="M15.532 -0.14093L16.1434 33.1303H16.0358L15.4243 -0.14093H15.532Z" fill="#D5266D"/>
<path d="M15.6394 -0.14093L16.2509 33.1303H16.1432L15.5317 -0.14093H15.6394Z" fill="#D6256C"/>
<path d="M15.7473 -0.14093L16.3588 33.1303H16.2511L15.6396 -0.14093H15.7473Z" fill="#D7256B"/>
<path d="M15.8547 -0.14093L16.4683 33.1303H16.3585L15.7471 -0.14093H15.8547Z" fill="#D7256A"/>
<path d="M15.9648 -0.14093L16.5763 33.1303H16.4686L15.855 -0.14093H15.9648Z" fill="#D82469"/>
<path d="M16.0725 -0.14093L16.684 33.1303H16.5763L15.9648 -0.14093H16.0725Z" fill="#D92468"/>
<path d="M16.1799 -0.14093L16.7914 33.1303H16.6837L16.0723 -0.14093H16.1799Z" fill="#DA2367"/>
<path d="M16.2873 -0.14093L16.8988 33.1303H16.7912L16.1797 -0.14093H16.2873Z" fill="#DB2366"/>
<path d="M16.3974 -0.14093L17.0089 33.1303H16.8991L16.2876 -0.14093H16.3974Z" fill="#DC2365"/>
<path d="M16.5051 -0.14093L17.1166 33.1303H17.0089L16.3975 -0.14093H16.5051Z" fill="#DD2264"/>
<path d="M16.6125 -0.14093L17.224 33.1303H17.1163L16.5049 -0.14093H16.6125Z" fill="#DD2263"/>
<path d="M16.7204 -0.14093L17.3319 33.1303H17.2243L16.6128 -0.14093H16.7204Z" fill="#DE2262"/>
<path d="M16.8279 -0.14093L17.4393 33.1303H17.3317L16.7202 -0.14093H16.8279Z" fill="#DF2161"/>
<path d="M16.9358 -0.14093L17.5472 33.1303H17.4396L16.8281 -0.14093H16.9358Z" fill="#E02160"/>
<path d="M17.0454 -0.14093L17.6568 33.1303H17.547L16.9355 -0.14093H17.0454Z" fill="#E1205F"/>
<path d="M17.1531 -0.14093L17.7645 33.1303H17.6569L17.0454 -0.14093H17.1531Z" fill="#E2205E"/>
<path d="M17.261 -0.14093L17.8724 33.1303H17.7648L17.1533 -0.14093H17.261Z" fill="#E2205D"/>
<path d="M17.3684 -0.14093L17.9799 33.1303H17.8722L17.2607 -0.14093H17.3684Z" fill="#E31F5C"/>
<path d="M17.4758 -0.14093L18.0894 33.1303H17.9796L17.3682 -0.14093H17.4758Z" fill="#E41F5B"/>
<path d="M17.5859 -0.14093L18.1091 28.3639V33.1303H18.0897L17.4761 -0.14093H17.5859Z" fill="#E51F5A"/>
</g>
</g>
<mask id="mask6_45_4917" style="mask-type:luminance" maskUnits="userSpaceOnUse" x="14" y="0" width="8" height="33">
<path d="M14.8989 0C14.8989 0.216948 14.8989 0.457761 14.8989 0.698573C14.8989 4.96595 16.2209 7.10939 17.4998 9.18342C18.6582 11.0644 19.7584 12.8542 19.7584 16.4881C19.7584 20.122 18.6582 21.8966 17.4891 23.7819C16.2102 25.8559 14.8882 27.9993 14.8882 32.2667C14.8882 32.5162 14.8882 32.7614 14.9033 33H17.136C17.136 32.7657 17.1209 32.5205 17.1209 32.2667C17.1209 28.6415 18.2211 26.8582 19.3859 24.9729C20.6777 22.8989 21.9911 20.7554 21.9911 16.4881C21.9911 12.2207 20.6691 10.0686 19.3773 7.99454C18.2211 6.10275 17.1209 4.31944 17.1209 0.698573C17.1209 0.457761 17.1209 0.225626 17.136 0H14.8989Z" fill="white"/>
</mask>
<g mask="url(#mask6_45_4917)">
<mask id="mask7_45_4917" style="mask-type:luminance" maskUnits="userSpaceOnUse" x="14" y="-1" width="9" height="35">
<path d="M21.9905 -0.13133L14.2817 0.0123901L14.8897 33.1217L22.5984 32.978L21.9905 -0.13133Z" fill="white"/>
</mask>
<g mask="url(#mask7_45_4917)">
<path d="M14.3435 -0.132324L14.955 33.1215H14.8473L14.2832 2.43634V-0.132324H14.3435Z" fill="#CB2A78"/>
<path d="M14.4509 -0.132324L15.0624 33.1215H14.9547L14.3433 -0.132324H14.4509Z" fill="#CC2977"/>
<path d="M14.5588 -0.132324L15.1703 33.1215H15.0626L14.4512 -0.132324H14.5588Z" fill="#CD2976"/>
<path d="M14.6684 -0.132324L15.2777 33.1215H15.1701L14.5586 -0.132324H14.6684Z" fill="#CE2975"/>
<path d="M14.7761 -0.132324L15.3876 33.1215H15.2778L14.6685 -0.132324H14.7761Z" fill="#CF2874"/>
<path d="M14.884 -0.132324L15.4955 33.1215H15.3878L14.7764 -0.132324H14.884Z" fill="#D02873"/>
<path d="M14.9914 -0.132324L15.6029 33.1215H15.4953L14.8838 -0.132324H14.9914Z" fill="#D12872"/>
<path d="M15.0994 -0.132324L15.7108 33.1215H15.6032L14.9917 -0.132324H15.0994Z" fill="#D12771"/>
<path d="M15.2068 -0.132324L15.8182 33.1215H15.7106L15.0991 -0.132324H15.2068Z" fill="#D22770"/>
<path d="M15.3168 -0.132324L15.9261 33.1215H15.8185L15.207 -0.132324H15.3168Z" fill="#D3266F"/>
<path d="M15.4245 -0.132324L16.036 33.1215H15.9262L15.3169 -0.132324H15.4245Z" fill="#D4266E"/>
<path d="M15.532 -0.132324L16.1434 33.1215H16.0358L15.4243 -0.132324H15.532Z" fill="#D5266D"/>
<path d="M15.6394 -0.132324L16.2509 33.1215H16.1432L15.5317 -0.132324H15.6394Z" fill="#D6256C"/>
<path d="M15.7473 -0.132324L16.3588 33.1215H16.2511L15.6396 -0.132324H15.7473Z" fill="#D7256B"/>
<path d="M15.8569 -0.132324L16.4683 33.1215H16.3585L15.7471 -0.132324H15.8569Z" fill="#D7256A"/>
<path d="M15.9646 -0.132324L16.5761 33.1215H16.4684L15.8569 -0.132324H15.9646Z" fill="#D82469"/>
<path d="M16.0725 -0.132324L16.684 33.1215H16.5763L15.9648 -0.132324H16.0725Z" fill="#D92468"/>
<path d="M16.1799 -0.132324L16.7914 33.1215H16.6837L16.0723 -0.132324H16.1799Z" fill="#DA2367"/>
<path d="M16.2878 -0.132324L16.8993 33.1215H16.7916L16.1802 -0.132324H16.2878Z" fill="#DB2366"/>
<path d="M16.3974 -0.132324L17.0067 33.1215H16.8991L16.2876 -0.132324H16.3974Z" fill="#DC2365"/>
<path d="M16.5051 -0.132324L17.1166 33.1215H17.0068L16.3975 -0.132324H16.5051Z" fill="#DD2264"/>
<path d="M16.613 -0.132324L17.2245 33.1215H17.1168L16.5054 -0.132324H16.613Z" fill="#DD2263"/>
<path d="M16.7204 -0.132324L17.3319 33.1215H17.2243L16.6128 -0.132324H16.7204Z" fill="#DE2262"/>
<path d="M16.8279 -0.132324L17.4393 33.1215H17.3317L16.7202 -0.132324H16.8279Z" fill="#DF2161"/>
<path d="M16.9379 -0.132324L17.5472 33.1215H17.4396L16.8281 -0.132324H16.9379Z" fill="#E02160"/>
<path d="M17.0456 -0.132324L17.6571 33.1215H17.5473L16.938 -0.132324H17.0456Z" fill="#E1205F"/>
<path d="M17.1531 -0.132324L17.7645 33.1215H17.6569L17.0454 -0.132324H17.1531Z" fill="#E2205E"/>
<path d="M17.261 -0.132324L17.8724 33.1215H17.7648L17.1533 -0.132324H17.261Z" fill="#E2205D"/>
<path d="M17.3684 -0.132324L17.9799 33.1215H17.8722L17.2607 -0.132324H17.3684Z" fill="#E31F5C"/>
<path d="M17.4785 -0.132324L18.0878 33.1215H17.9801L17.3687 -0.132324H17.4785Z" fill="#E41F5B"/>
<path d="M17.5862 -0.132324L18.1976 33.1215H18.0878L17.4785 -0.132324H17.5862Z" fill="#E51F5A"/>
<path d="M17.6936 -0.132324L18.3051 33.1215H18.1974L17.5859 -0.132324H17.6936Z" fill="#E61E59"/>
<path d="M17.8015 -0.132324L18.413 33.1215H18.3053L17.6938 -0.132324H17.8015Z" fill="#E71E58"/>
<path d="M17.9089 -0.132324L18.5204 33.1215H18.4127L17.8013 -0.132324H17.9089Z" fill="#E81D57"/>
<path d="M18.0185 -0.132324L18.6278 33.1215H18.5202L17.9087 -0.132324H18.0185Z" fill="#E81D56"/>
<path d="M18.1262 -0.132324L18.7377 33.1215H18.6279L18.0186 -0.132324H18.1262Z" fill="#E91D55"/>
<path d="M18.2341 -0.132324L18.8456 33.1215H18.7379L18.1265 -0.132324H18.2341Z" fill="#EA1C54"/>
<path d="M18.3415 -0.132324L18.953 33.1215H18.8454L18.2339 -0.132324H18.3415Z" fill="#EB1C53"/>
<path d="M18.4559 -0.132324L19.0674 33.1215H18.9533L18.3418 -0.132324H18.4559Z" fill="#EB1C53"/>
<path d="M18.5697 -0.132324L19.1811 33.1215H19.067L18.4556 -0.132324H18.5697Z" fill="#EB1D53"/>
<path d="M18.6839 -0.132324L19.2954 33.1215H19.1813L18.5698 -0.132324H18.6839Z" fill="#EB1E53"/>
<path d="M18.7982 -0.132324L19.4075 33.1215H19.2955L18.6841 -0.132324H18.7982Z" fill="#EB1F53"/>
<path d="M18.9125 -0.132324L19.5218 33.1215H19.4077L18.7983 -0.132324H18.9125Z" fill="#EC2052"/>
<path d="M19.0241 -0.132324L19.6355 33.1215H19.5214L18.9121 -0.132324H19.0241Z" fill="#EC2152"/>
<path d="M19.1385 -0.132324L19.75 33.1215H19.6359L19.0244 -0.132324H19.1385Z" fill="#EC2252"/>
<path d="M19.2523 -0.132324L19.8638 33.1215H19.7496L19.1382 -0.132324H19.2523Z" fill="#EC2352"/>
<path d="M19.3666 -0.132324L19.978 33.1215H19.8639L19.2524 -0.132324H19.3666Z" fill="#EC2452"/>
<path d="M19.4808 -0.132324L20.0923 33.1215H19.9782L19.3667 -0.132324H19.4808Z" fill="#EC2552"/>
<path d="M19.5946 -0.132324L20.206 33.1215H20.0919L19.4805 -0.132324H19.5946Z" fill="#EC2652"/>
<path d="M19.7088 -0.132324L20.3203 33.1215H20.2062L19.5947 -0.132324H19.7088Z" fill="#ED2751"/>
<path d="M19.8231 -0.132324L20.4346 33.1215H20.3204L19.709 -0.132324H19.8231Z" fill="#ED2851"/>
<path d="M19.9369 -0.132324L20.5483 33.1215H20.4342L19.8228 -0.132324H19.9369Z" fill="#ED2951"/>
<path d="M20.0511 -0.132324L20.6604 33.1215H20.5485L19.937 -0.132324H20.0511Z" fill="#ED2A51"/>
<path d="M20.1632 -0.132324L20.7747 33.1215H20.6606L20.0513 -0.132324H20.1632Z" fill="#ED2B51"/>
<path d="M20.2772 -0.132324L20.8887 33.1215H20.7746L20.1631 -0.132324H20.2772Z" fill="#ED2C51"/>
<path d="M20.3915 -0.132324L21.0029 33.1215H20.8888L20.2773 -0.132324H20.3915Z" fill="#EE2D51"/>
<path d="M20.5057 -0.132324L21.1172 33.1215H21.0031L20.3916 -0.132324H20.5057Z" fill="#EE2E50"/>
<path d="M20.6195 -0.132324L21.2309 33.1215H21.1168L20.5054 -0.132324H20.6195Z" fill="#EE2F50"/>
<path d="M20.7337 -0.132324L21.3452 33.1215H21.2311L20.6196 -0.132324H20.7337Z" fill="#EE3050"/>
<path d="M20.848 -0.132324L21.4595 33.1215H21.3454L20.7339 -0.132324H20.848Z" fill="#EE3150"/>
<path d="M20.9618 -0.132324L21.5732 33.1215H21.4591L20.8477 -0.132324H20.9618Z" fill="#EE3250"/>
<path d="M21.076 -0.132324L21.6853 33.1215H21.5734L20.9619 -0.132324H21.076Z" fill="#EE3350"/>
<path d="M21.1881 -0.132324L21.7996 33.1215H21.6855L21.0762 -0.132324H21.1881Z" fill="#EF3450"/>
<path d="M21.3021 -0.132324L21.9136 33.1215H21.7995L21.188 -0.132324H21.3021Z" fill="#EF354F"/>
<path d="M21.4164 -0.132324L22.0278 33.1215H21.9137L21.3022 -0.132324H21.4164Z" fill="#EF364F"/>
<path d="M21.5301 -0.132324L22.1416 33.1215H22.0275L21.416 -0.132324H21.5301Z" fill="#EF374F"/>
<path d="M21.6444 -0.132324L22.2558 33.1215H22.1417L21.5303 -0.132324H21.6444Z" fill="#EF384F"/>
<path d="M21.7586 -0.132324L22.3701 33.1215H22.256L21.6445 -0.132324H21.7586Z" fill="#EF394F"/>
<path d="M21.8729 -0.132324L22.4844 33.1215H22.3703L21.7588 -0.132324H21.8729Z" fill="#EF3A4F"/>
<path d="M21.9867 -0.132324L22.5981 33.1215H22.484L21.8726 -0.132324H21.9867Z" fill="#F03B4F"/>
<path d="M22.1009 -0.132324L22.5983 27.0144V33.1215L21.9868 -0.132324H22.1009Z" fill="#F03C4E"/>
</g>
</g>
<mask id="mask8_45_4917" style="mask-type:luminance" maskUnits="userSpaceOnUse" x="19" y="0" width="8" height="33">
<path d="M19.8599 0C19.8599 0.229965 19.8599 0.457761 19.8599 0.698573C19.8599 4.89652 21.1668 7.01177 22.4284 9.05759C23.6148 10.9754 24.7322 12.7848 24.7322 16.4772C24.7322 20.1697 23.6148 21.979 22.4284 23.899C21.1668 25.9448 19.8599 28.0579 19.8599 32.2559C19.8599 32.5054 19.8599 32.7505 19.8749 32.9892H21.6383C21.6254 32.7505 21.6211 32.5097 21.6211 32.2559C21.6211 28.5677 22.7385 26.7541 23.9227 24.8362C25.1757 22.7904 26.4826 20.6752 26.4826 16.4881C26.4826 12.301 25.1757 10.177 23.9119 8.13122C22.7277 6.2134 21.6103 4.39971 21.6103 0.709421C21.6103 0.468608 21.6103 0.236474 21.6232 0.0108474L19.8599 0Z" fill="white"/>
</mask>
<g mask="url(#mask8_45_4917)">
<mask id="mask9_45_4917" style="mask-type:luminance" maskUnits="userSpaceOnUse" x="19" y="-1" width="9" height="35">
<path d="M26.4836 -0.164431L19.2451 -0.0185547L19.9022 33.0878L27.1408 32.9419L26.4836 -0.164431Z" fill="white"/>
</mask>
<g mask="url(#mask9_45_4917)">
<path d="M19.2528 -0.123535L19.8642 33.1129H19.7501L19.2441 5.54098V-0.123535H19.2528Z" fill="#EC2352"/>
<path d="M19.367 -0.123535L19.9785 33.1129H19.8644L19.2529 -0.123535H19.367Z" fill="#EC2452"/>
<path d="M19.4808 -0.123535L20.0923 33.1129H19.9782L19.3667 -0.123535H19.4808Z" fill="#EC2552"/>
<path d="M19.5951 -0.123535L20.2065 33.1129H20.0924L19.481 -0.123535H19.5951Z" fill="#EC2652"/>
<path d="M19.7093 -0.123535L20.3208 33.1129H20.2067L19.5952 -0.123535H19.7093Z" fill="#ED2751"/>
<path d="M19.8231 -0.123535L20.4346 33.1129H20.3204L19.709 -0.123535H19.8231Z" fill="#ED2851"/>
<path d="M19.9374 -0.123535L20.5467 33.1129H20.4347L19.8232 -0.123535H19.9374Z" fill="#ED2951"/>
<path d="M20.0516 -0.123535L20.6609 33.1129H20.5468L19.9375 -0.123535H20.0516Z" fill="#ED2A51"/>
<path d="M20.1659 -0.123535L20.7752 33.1129H20.6611L20.0518 -0.123535H20.1659Z" fill="#ED2B51"/>
<path d="M20.2775 -0.123535L20.889 33.1129H20.7748L20.1655 -0.123535H20.2775Z" fill="#ED2C51"/>
<path d="M20.3919 -0.123535L21.0034 33.1129H20.8893L20.2778 -0.123535H20.3919Z" fill="#EE2D51"/>
<path d="M20.5057 -0.123535L21.1172 33.1129H21.0031L20.3916 -0.123535H20.5057Z" fill="#EE2E50"/>
<path d="M20.62 -0.123535L21.2314 33.1129H21.1173L20.5059 -0.123535H20.62Z" fill="#EE2F50"/>
<path d="M20.7342 -0.123535L21.3457 33.1129H21.2316L20.6201 -0.123535H20.7342Z" fill="#EE3050"/>
<path d="M20.848 -0.123535L21.4595 33.1129H21.3454L20.7339 -0.123535H20.848Z" fill="#EE3150"/>
<path d="M20.9623 -0.123535L21.5716 33.1129H21.4596L20.8481 -0.123535H20.9623Z" fill="#EE3250"/>
<path d="M21.0765 -0.123535L21.6858 33.1129H21.5717L20.9624 -0.123535H21.0765Z" fill="#EE3350"/>
<path d="M21.1903 -0.123535L21.7996 33.1129H21.6855L21.0762 -0.123535H21.1903Z" fill="#EF3450"/>
<path d="M21.3024 -0.123535L21.9139 33.1129H21.7997L21.1904 -0.123535H21.3024Z" fill="#EF354F"/>
<path d="M21.4164 -0.123535L22.0278 33.1129H21.9137L21.3022 -0.123535H21.4164Z" fill="#EF364F"/>
<path d="M21.5306 -0.123535L22.1421 33.1129H22.028L21.4165 -0.123535H21.5306Z" fill="#EF374F"/>
<path d="M21.6449 -0.123535L22.2563 33.1129H22.1422L21.5308 -0.123535H21.6449Z" fill="#EF384F"/>
<path d="M21.7591 -0.123535L22.3706 33.1129H22.2565L21.645 -0.123535H21.7591Z" fill="#EF394F"/>
<path d="M21.8729 -0.123535L22.4844 33.1129H22.3703L21.7588 -0.123535H21.8729Z" fill="#EF3A4F"/>
<path d="M21.9872 -0.123535L22.5986 33.1129H22.4845L21.873 -0.123535H21.9872Z" fill="#F03B4F"/>
<path d="M22.1014 -0.123535L22.7107 33.1129H22.5988L21.9873 -0.123535H22.1014Z" fill="#F03C4E"/>
<path d="M22.2152 -0.123535L22.8245 33.1129H22.7104L22.1011 -0.123535H22.2152Z" fill="#F03D4E"/>
<path d="M22.3294 -0.123535L22.9388 33.1129H22.8246L22.2153 -0.123535H22.3294Z" fill="#F03E4E"/>
<path d="M22.4415 -0.123535L23.053 33.1129H22.9389L22.3296 -0.123535H22.4415Z" fill="#F03F4E"/>
<path d="M22.5555 -0.123535L23.167 33.1129H23.0529L22.4414 -0.123535H22.5555Z" fill="#F0404E"/>
<path d="M22.6698 -0.123535L23.2812 33.1129H23.1671L22.5557 -0.123535H22.6698Z" fill="#F1414E"/>
<path d="M22.7835 -0.123535L23.395 33.1129H23.2809L22.6694 -0.123535H22.7835Z" fill="#F1424E"/>
<path d="M22.8978 -0.123535L23.5093 33.1129H23.3952L22.7837 -0.123535H22.8978Z" fill="#F1434D"/>
<path d="M23.0121 -0.123535L23.6235 33.1129H23.5094L22.8979 -0.123535H23.0121Z" fill="#F1444D"/>
<path d="M23.1263 -0.123535L23.7378 33.1129H23.6237L23.0122 -0.123535H23.1263Z" fill="#F1454D"/>
<path d="M23.2401 -0.123535L23.8494 33.1129H23.7374L23.126 -0.123535H23.2401Z" fill="#F1464D"/>
<path d="M23.3543 -0.123535L23.9637 33.1129H23.8495L23.2402 -0.123535H23.3543Z" fill="#F1474D"/>
<path d="M23.4686 -0.123535L24.0779 33.1129H23.9638L23.3545 -0.123535H23.4686Z" fill="#F2484D"/>
<path d="M23.5802 -0.123535L24.1917 33.1129H24.0776L23.4683 -0.123535H23.5802Z" fill="#F2494D"/>
<path d="M23.6947 -0.123535L24.3061 33.1129H24.192L23.5806 -0.123535H23.6947Z" fill="#F24A4C"/>
<path d="M23.8084 -0.123535L24.4199 33.1129H24.3058L23.6943 -0.123535H23.8084Z" fill="#F24B4C"/>
<path d="M23.9227 -0.123535L24.5342 33.1129H24.4201L23.8086 -0.123535H23.9227Z" fill="#F24C4C"/>
<path d="M24.037 -0.123535L24.6484 33.1129H24.5343L23.9229 -0.123535H24.037Z" fill="#F24D4C"/>
<path d="M24.1507 -0.123535L24.76 33.1129H24.6481L24.0366 -0.123535H24.1507Z" fill="#F34E4C"/>
<path d="M24.265 -0.123535L24.8743 33.1129H24.7602L24.1509 -0.123535H24.265Z" fill="#F34F4C"/>
<path d="M24.3792 -0.123535L24.9886 33.1129H24.8744L24.2651 -0.123535H24.3792Z" fill="#F3504C"/>
<path d="M24.4909 -0.123535L25.1023 33.1129H24.9882L24.3789 -0.123535H24.4909Z" fill="#F3514B"/>
<path d="M24.6053 -0.123535L25.2168 33.1129H25.1027L24.4912 -0.123535H24.6053Z" fill="#F3524B"/>
<path d="M24.7191 -0.123535L25.3306 33.1129H25.2164L24.605 -0.123535H24.7191Z" fill="#F3534B"/>
<path d="M24.8333 -0.123535L25.4448 33.1129H25.3307L24.7192 -0.123535H24.8333Z" fill="#F3544B"/>
<path d="M24.9476 -0.123535L25.5591 33.1129H25.445L24.8335 -0.123535H24.9476Z" fill="#F4554B"/>
<path d="M25.0619 -0.123535L25.6733 33.1129H25.5592L24.9478 -0.123535H25.0619Z" fill="#F4564B"/>
<path d="M25.1756 -0.123535L25.7871 33.1129H25.673L25.0615 -0.123535H25.1756Z" fill="#F4574B"/>
<path d="M25.2899 -0.123535L25.9014 33.1129H25.7872L25.1758 -0.123535H25.2899Z" fill="#F4584A"/>
<path d="M25.4042 -0.123535L26.0135 33.1129H25.9015L25.29 -0.123535H25.4042Z" fill="#F4594A"/>
<path d="M25.5179 -0.123535L26.1272 33.1129H26.0131L25.4038 -0.123535H25.5179Z" fill="#F45A4A"/>
<path d="M25.6322 -0.123535L26.2415 33.1129H26.1274L25.5181 -0.123535H25.6322Z" fill="#F45B4A"/>
<path d="M25.7443 -0.123535L26.3557 33.1129H26.2416L25.6323 -0.123535H25.7443Z" fill="#F55C4A"/>
<path d="M25.8583 -0.123535L26.4697 33.1129H26.3556L25.7441 -0.123535H25.8583Z" fill="#F55D4A"/>
<path d="M25.9725 -0.123535L26.584 33.1129H26.4699L25.8584 -0.123535H25.9725Z" fill="#F55E4A"/>
<path d="M26.0863 -0.123535L26.6977 33.1129H26.5836L25.9722 -0.123535H26.0863Z" fill="#F55F49"/>
<path d="M26.2005 -0.123535L26.812 33.1129H26.6979L26.0864 -0.123535H26.2005Z" fill="#F56049"/>
<path d="M26.3148 -0.123535L26.9263 33.1129H26.8121L26.2007 -0.123535H26.3148Z" fill="#F56149"/>
<path d="M26.4291 -0.123535L27.0384 33.1129H26.9264L26.3149 -0.123535H26.4291Z" fill="#F66249"/>
<path d="M26.5428 -0.123535L27.0897 29.6504V33.1129H27.038L26.4287 -0.123535H26.5428Z" fill="#F66349"/>
</g>
</g>
<mask id="mask10_45_4917" style="mask-type:luminance" maskUnits="userSpaceOnUse" x="24" y="0" width="7" height="33">
<path d="M24.8287 0C24.8287 0.216948 24.8137 0.457761 24.8137 0.698573C24.8137 4.82059 26.1055 6.91414 27.3457 8.92959C28.5492 10.8821 29.686 12.7175 29.686 16.4772C29.686 20.2369 28.5492 22.0788 27.3435 24.0248C26.099 26.0425 24.8115 28.1252 24.8115 32.2559C24.8115 32.5054 24.8115 32.7505 24.8266 32.9892H26.1184C26.1184 32.7505 26.1033 32.5097 26.1033 32.2559C26.1033 28.4962 27.2402 26.6564 28.4416 24.7082C29.6817 22.6928 30.9671 20.6101 30.9671 16.4881C30.9671 12.3661 29.6753 10.2747 28.4351 8.25705C27.2337 6.30452 26.0969 4.46913 26.0969 0.709421C26.0969 0.468608 26.0969 0.236474 26.1077 0.0108474L24.8287 0Z" fill="white"/>
</mask>
<g mask="url(#mask10_45_4917)">
<mask id="mask11_45_4917" style="mask-type:luminance" maskUnits="userSpaceOnUse" x="24" y="-1" width="8" height="35">
<path d="M30.965 -0.114303L24.2056 0.0117188L24.8132 33.1037L31.5726 32.9777L30.965 -0.114303Z" fill="white"/>
</mask>
<g mask="url(#mask11_45_4917)">
<path d="M24.2645 -0.11499L24.8738 33.1041H24.7597L24.2085 3.04595V-0.11499H24.2645Z" fill="#F34F4C"/>
<path d="M24.3788 -0.11499L24.9881 33.1041H24.874L24.2646 -0.11499H24.3788Z" fill="#F3504C"/>
<path d="M24.4925 -0.11499L25.1018 33.1041H24.9877L24.3784 -0.11499H24.4925Z" fill="#F3514B"/>
<path d="M24.6046 -0.11499L25.2161 33.1041H25.102L24.4927 -0.11499H24.6046Z" fill="#F3524B"/>
<path d="M24.7186 -0.11499L25.3301 33.1041H25.216L24.6045 -0.11499H24.7186Z" fill="#F3534B"/>
<path d="M24.8329 -0.11499L25.4443 33.1041H25.3302L24.7188 -0.11499H24.8329Z" fill="#F3544B"/>
<path d="M24.9471 -0.11499L25.5586 33.1041H25.4445L24.833 -0.11499H24.9471Z" fill="#F4554B"/>
<path d="M25.0609 -0.11499L25.6724 33.1041H25.5582L24.9468 -0.11499H25.0609Z" fill="#F4564B"/>
<path d="M25.1751 -0.11499L25.7866 33.1041H25.6725L25.061 -0.11499H25.1751Z" fill="#F4574B"/>
<path d="M25.2894 -0.11499L25.8987 33.1041H25.7868L25.1753 -0.11499H25.2894Z" fill="#F4584A"/>
<path d="M25.4037 -0.11499L26.013 33.1041H25.8989L25.2896 -0.11499H25.4037Z" fill="#F4594A"/>
<path d="M25.5174 -0.11499L26.1267 33.1041H26.0126L25.4033 -0.11499H25.5174Z" fill="#F45A4A"/>
<path d="M25.6317 -0.11499L26.241 33.1041H26.1269L25.5176 -0.11499H25.6317Z" fill="#F45B4A"/>
<path d="M25.7459 -0.11499L26.3553 33.1041H26.2411L25.6318 -0.11499H25.7459Z" fill="#F55C4A"/>
<path d="M25.8576 -0.11499L26.469 33.1041H26.3549L25.7456 -0.11499H25.8576Z" fill="#F55D4A"/>
<path d="M25.972 -0.11499L26.5835 33.1041H26.4694L25.8579 -0.11499H25.972Z" fill="#F55E4A"/>
<path d="M26.0858 -0.11499L26.6973 33.1041H26.5831L25.9717 -0.11499H26.0858Z" fill="#F55F49"/>
<path d="M26.2 -0.11499L26.8115 33.1041H26.6974L26.0859 -0.11499H26.2Z" fill="#F56049"/>
<path d="M26.3143 -0.11499L26.9236 33.1041H26.8117L26.2002 -0.11499H26.3143Z" fill="#F56149"/>
<path d="M26.4281 -0.11499L27.0374 33.1041H26.9233L26.314 -0.11499H26.4281Z" fill="#F66249"/>
<path d="M26.5423 -0.11499L27.1516 33.1041H27.0375L26.4282 -0.11499H26.5423Z" fill="#F66349"/>
<path d="M26.6566 -0.11499L27.2659 33.1041H27.1518L26.5425 -0.11499H26.6566Z" fill="#F66449"/>
<path d="M26.7687 -0.11499L27.3802 33.1041H27.266L26.6567 -0.11499H26.7687Z" fill="#F66549"/>
<path d="M26.8827 -0.11499L27.4941 33.1041H27.38L26.7686 -0.11499H26.8827Z" fill="#F66648"/>
<path d="M26.9969 -0.11499L27.6084 33.1041H27.4943L26.8828 -0.11499H26.9969Z" fill="#F66748"/>
<path d="M27.1107 -0.11499L27.7222 33.1041H27.608L26.9966 -0.11499H27.1107Z" fill="#F66848"/>
<path d="M27.225 -0.11499L27.8364 33.1041H27.7223L27.1108 -0.11499H27.225Z" fill="#F76948"/>
<path d="M27.3392 -0.11499L27.9507 33.1041H27.8366L27.2251 -0.11499H27.3392Z" fill="#F76B48"/>
<path d="M27.453 -0.11499L28.0623 33.1041H27.9503L27.3389 -0.11499H27.453Z" fill="#F76C48"/>
<path d="M27.5672 -0.11499L28.1765 33.1041H28.0624L27.4531 -0.11499H27.5672Z" fill="#F76D48"/>
<path d="M27.6815 -0.11499L28.2908 33.1041H28.1767L27.5674 -0.11499H27.6815Z" fill="#F76E47"/>
<path d="M27.7953 -0.11499L28.4046 33.1041H28.2905L27.6812 -0.11499H27.7953Z" fill="#F76F47"/>
<path d="M27.9095 -0.11499L28.5188 33.1041H28.4047L27.7954 -0.11499H27.9095Z" fill="#F77047"/>
<path d="M28.0216 -0.11499L28.6331 33.1041H28.519L27.9097 -0.11499H28.0216Z" fill="#F87147"/>
<path d="M28.1356 -0.11499L28.7471 33.1041H28.6329L28.0215 -0.11499H28.1356Z" fill="#F87247"/>
<path d="M28.2499 -0.11499L28.8613 33.1041H28.7472L28.1357 -0.11499H28.2499Z" fill="#F87347"/>
<path d="M28.3641 -0.11499L28.9756 33.1041H28.8615L28.25 -0.11499H28.3641Z" fill="#F87447"/>
<path d="M28.4779 -0.11499L29.0872 33.1041H28.9752L28.3638 -0.11499H28.4779Z" fill="#F87546"/>
<path d="M28.5921 -0.11499L29.2015 33.1041H29.0873L28.478 -0.11499H28.5921Z" fill="#F87646"/>
<path d="M28.7064 -0.11499L29.3157 33.1041H29.2016L28.5923 -0.11499H28.7064Z" fill="#F97746"/>
<path d="M28.8202 -0.11499L29.4295 33.1041H29.3154L28.7061 -0.11499H28.8202Z" fill="#F97846"/>
<path d="M28.9323 -0.11499L29.5437 33.1041H29.4296L28.8203 -0.11499H28.9323Z" fill="#F97946"/>
<path d="M29.0462 -0.11499L29.6577 33.1041H29.5436L28.9321 -0.11499H29.0462Z" fill="#F97A46"/>
<path d="M29.1605 -0.11499L29.772 33.1041H29.6579L29.0464 -0.11499H29.1605Z" fill="#F97B46"/>
<path d="M29.2748 -0.11499L29.8862 33.1041H29.7721L29.1606 -0.11499H29.2748Z" fill="#F97C45"/>
<path d="M29.3885 -0.11499L30 33.1041H29.8859L29.2744 -0.11499H29.3885Z" fill="#F97D45"/>
<path d="M29.5028 -0.11499L30.1142 33.1041H30.0001L29.3887 -0.11499H29.5028Z" fill="#FA7E45"/>
<path d="M29.617 -0.11499L30.2264 33.1041H30.1144L29.5029 -0.11499H29.617Z" fill="#FA7F45"/>
<path d="M29.7308 -0.11499L30.3401 33.1041H30.226L29.6167 -0.11499H29.7308Z" fill="#FA8045"/>
<path d="M29.8451 -0.11499L30.4544 33.1041H30.3403L29.731 -0.11499H29.8451Z" fill="#FA8145"/>
<path d="M29.9593 -0.11499L30.5686 33.1041H30.4545L29.8452 -0.11499H29.9593Z" fill="#FA8245"/>
<path d="M30.0736 -0.11499L30.6829 33.1041H30.5688L29.9595 -0.11499H30.0736Z" fill="#FA8344"/>
<path d="M30.1852 -0.11499L30.7967 33.1041H30.6826L30.0732 -0.11499H30.1852Z" fill="#FA8444"/>
<path d="M30.2997 -0.11499L30.9111 33.1041H30.797L30.1855 -0.11499H30.2997Z" fill="#FB8544"/>
<path d="M30.4134 -0.11499L31.0249 33.1041H30.9108L30.2993 -0.11499H30.4134Z" fill="#FB8644"/>
<path d="M30.5277 -0.11499L31.1391 33.1041H31.025L30.4136 -0.11499H30.5277Z" fill="#FB8744"/>
<path d="M30.6419 -0.11499L31.2534 33.1041H31.1393L30.5278 -0.11499H30.6419Z" fill="#FB8844"/>
<path d="M30.7557 -0.11499L31.365 33.1041H31.2531L30.6416 -0.11499H30.7557Z" fill="#FB8944"/>
<path d="M30.87 -0.11499L31.4793 33.1041H31.3652L30.7559 -0.11499H30.87Z" fill="#FB8A43"/>
<path d="M30.9842 -0.11499L31.5763 32.0845V33.1041H31.4794L30.8701 -0.11499H30.9842Z" fill="#FC8B43"/>
</g>
</g>
<mask id="mask12_45_4917" style="mask-type:luminance" maskUnits="userSpaceOnUse" x="29" y="0" width="7" height="33">
<path d="M29.7916 0C29.7787 0.216948 29.7744 0.457761 29.7744 0.698573C29.7744 4.76201 31.0447 6.81434 32.2719 8.80376C33.4992 10.7932 34.6403 12.6481 34.6403 16.4772C34.6403 20.3064 33.4863 22.1721 32.2719 24.1528C31.0576 26.1336 29.7744 28.1946 29.7744 32.2559C29.7744 32.5097 29.7744 32.7505 29.7916 32.9892H30.599C30.599 32.7505 30.5861 32.5097 30.5861 32.2559C30.5861 28.4267 31.7401 26.561 32.9545 24.5824C34.1688 22.6038 35.452 20.5407 35.452 16.4772C35.452 12.4138 34.1817 10.3614 32.9545 8.36986C31.7272 6.37828 30.5861 4.52554 30.5861 0.698573C30.5861 0.457761 30.5861 0.225626 30.599 0L29.7916 0Z" fill="white"/>
</mask>
<g mask="url(#mask12_45_4917)">
<mask id="mask13_45_4917" style="mask-type:luminance" maskUnits="userSpaceOnUse" x="29" y="-1" width="8" height="35">
<path d="M35.4579 -0.10472L29.1699 0.0125122L29.7774 33.0958L36.0654 32.9786L35.4579 -0.10472Z" fill="white"/>
</mask>
<g mask="url(#mask13_45_4917)">
<path d="M29.2749 -0.106323L29.8864 33.0954H29.7723L29.1694 0.329743V-0.106323H29.2749Z" fill="#F97C45"/>
<path d="M29.389 -0.106323L30.0005 33.0954H29.8864L29.2749 -0.106323H29.389Z" fill="#F97D45"/>
<path d="M29.5033 -0.106323L30.1147 33.0954H30.0006L29.3892 -0.106323H29.5033Z" fill="#FA7E45"/>
<path d="M29.617 -0.106323L30.2264 33.0954H30.1144L29.5029 -0.106323H29.617Z" fill="#FA7F45"/>
<path d="M29.7313 -0.106323L30.3406 33.0954H30.2265L29.6172 -0.106323H29.7313Z" fill="#FA8045"/>
<path d="M29.8456 -0.106323L30.4549 33.0954H30.3408L29.7314 -0.106323H29.8456Z" fill="#FA8145"/>
<path d="M29.9598 -0.106323L30.5691 33.0954H30.455L29.8457 -0.106323H29.9598Z" fill="#FA8245"/>
<path d="M30.0736 -0.106323L30.6829 33.0954H30.5688L29.9595 -0.106323H30.0736Z" fill="#FA8344"/>
<path d="M30.1857 -0.106323L30.7972 33.0954H30.683L30.0737 -0.106323H30.1857Z" fill="#FA8444"/>
<path d="M30.2997 -0.106323L30.9111 33.0954H30.797L30.1855 -0.106323H30.2997Z" fill="#FB8544"/>
<path d="M30.4139 -0.106323L31.0254 33.0954H30.9113L30.2998 -0.106323H30.4139Z" fill="#FB8644"/>
<path d="M30.5282 -0.106323L31.1396 33.0954H31.0255L30.4141 -0.106323H30.5282Z" fill="#FB8744"/>
<path d="M30.6419 -0.106323L31.2513 33.0954H31.1393L30.5278 -0.106323H30.6419Z" fill="#FB8844"/>
<path d="M30.7562 -0.106323L31.3655 33.0954H31.2514L30.6421 -0.106323H30.7562Z" fill="#FB8944"/>
<path d="M30.8705 -0.106323L31.4798 33.0954H31.3657L30.7563 -0.106323H30.8705Z" fill="#FB8A43"/>
<path d="M30.9842 -0.106323L31.5935 33.0954H31.4794L30.8701 -0.106323H30.9842Z" fill="#FC8B43"/>
<path d="M31.0985 -0.106323L31.7078 33.0954H31.5937L30.9844 -0.106323H31.0985Z" fill="#FC8C43"/>
<path d="M31.2127 -0.106323L31.8221 33.0954H31.7079L31.0986 -0.106323H31.2127Z" fill="#FC8D43"/>
<path d="M31.3248 -0.106323L31.9363 33.0954H31.8222L31.2129 -0.106323H31.3248Z" fill="#FC8E43"/>
<path d="M31.4388 -0.106323L32.0503 33.0954H31.9362L31.3247 -0.106323H31.4388Z" fill="#FC8F43"/>
<path d="M31.5531 -0.106323L32.1645 33.0954H32.0504L31.439 -0.106323H31.5531Z" fill="#FC9043"/>
<path d="M31.6668 -0.106323L32.2762 33.0954H32.1642L31.5527 -0.106323H31.6668Z" fill="#FC9142"/>
<path d="M31.7811 -0.106323L32.3904 33.0954H32.2763L31.667 -0.106323H31.7811Z" fill="#FD9242"/>
<path d="M31.8954 -0.106323L32.5047 33.0954H32.3906L31.7812 -0.106323H31.8954Z" fill="#FD9342"/>
<path d="M32.0091 -0.106323L32.6184 33.0954H32.5043L31.895 -0.106323H32.0091Z" fill="#FD9442"/>
<path d="M32.1234 -0.106323L32.7327 33.0954H32.6186L32.0093 -0.106323H32.1234Z" fill="#FD9542"/>
<path d="M32.2376 -0.106323L32.847 33.0954H32.7328L32.1235 -0.106323H32.2376Z" fill="#FD9642"/>
<path d="M32.3493 -0.106323L32.9607 33.0954H32.8466L32.2373 -0.106323H32.3493Z" fill="#FD9742"/>
<path d="M32.4637 -0.106323L33.0752 33.0954H32.9611L32.3496 -0.106323H32.4637Z" fill="#FD9841"/>
<path d="M32.5775 -0.106323L33.189 33.0954H33.0748L32.4634 -0.106323H32.5775Z" fill="#FE9941"/>
<path d="M32.6917 -0.106323L33.3032 33.0954H33.1891L32.5776 -0.106323H32.6917Z" fill="#FE9A41"/>
<path d="M32.806 -0.106323L33.4153 33.0954H33.3034L32.6919 -0.106323H32.806Z" fill="#FE9B41"/>
<path d="M32.9203 -0.106323L33.5296 33.0954H33.4155L32.8062 -0.106323H32.9203Z" fill="#FE9C41"/>
<path d="M33.034 -0.106323L33.6433 33.0954H33.5292L32.9199 -0.106323H33.034Z" fill="#FE9D41"/>
<path d="M33.1483 -0.106323L33.7576 33.0954H33.6435L33.0342 -0.106323H33.1483Z" fill="#FE9E41"/>
<path d="M33.2625 -0.106323L33.8719 33.0954H33.7577L33.1484 -0.106323H33.2625Z" fill="#FF9F40"/>
<path d="M33.3742 -0.106323L33.9856 33.0954H33.8715L33.2622 -0.106323H33.3742Z" fill="#FFA040"/>
<path d="M33.4886 -0.106323L34.1001 33.0954H33.986L33.3745 -0.106323H33.4886Z" fill="#FFA140"/>
<path d="M33.6024 -0.106323L34.2139 33.0954H34.0997L33.4883 -0.106323H33.6024Z" fill="#FFA240"/>
<path d="M34.214 33.0954L33.6025 -0.106323H36.0656V33.0954H34.214Z" fill="#FFA240"/>
</g>
</g>
</svg>
