<svg width="250" height="48" viewBox="0 0 250 48" fill="none" xmlns="http://www.w3.org/2000/svg">
<path d="M65.5412 14.2003H81.2331C85.4726 14.2003 88.8669 15.8065 88.8669 20.5399C88.8669 25.2165 85.3618 26.8227 81.1761 26.7943H79.3396L89.6901 33.926H86.1217L76.1196 26.8795H67.805V33.926H65.5412V14.2003ZM81.2077 24.7747C84.203 24.7747 86.5523 23.705 86.5523 20.5493C86.5523 17.3937 84.26 16.324 81.2932 16.324H67.805V24.7747H81.2077Z" fill="#333333"/>
<path d="M92.3751 33.926V14.2003H113.836V16.3145H94.6389V22.7109H112.139V24.822H94.6389V31.8117H114.399V33.926H92.3751Z" fill="#333333"/>
<path d="M139.283 14.2003H141.531V33.926H139.283L120.14 17.0466L120.197 19.6374V33.926H117.936V14.2003H120.152L139.315 31.0859L139.286 28.3216L139.283 14.2003Z" fill="#333333"/>
<path d="M145.647 33.926V14.2003H155.345C165.636 14.2003 169.932 18.2016 169.932 24.0615C169.932 29.9215 165.632 33.926 155.342 33.926H145.647ZM147.908 16.3177V31.8117H155.345C164.109 31.8117 167.614 28.7666 167.614 24.0615C167.614 19.3565 164.106 16.3145 155.342 16.3145L147.908 16.3177Z" fill="#333333"/>
<path d="M173.466 33.926V14.2003H194.923V16.3145H175.726V22.7109H193.229V24.822H175.726V31.8117H195.49V33.926H173.466Z" fill="#333333"/>
<path d="M199.024 14.2003H214.715C218.958 14.2003 222.349 15.8065 222.349 20.5399C222.349 25.2165 218.844 26.8227 214.658 26.7943H212.822L223.169 33.926H219.607L209.605 26.8795H201.287V33.926H199.024V14.2003ZM214.687 24.7747C217.685 24.7747 220.032 23.705 220.032 20.5493C220.032 17.3937 217.742 16.324 214.772 16.324H201.287V24.7747H214.687Z" fill="#333333"/>
<path d="M225.857 14.2003H241.549C245.789 14.2003 249.18 15.8065 249.18 20.5399C249.18 25.2165 245.675 26.8227 241.492 26.7943H239.653L250 33.926H246.438L236.429 26.8795H228.118V33.926H225.857V14.2003ZM241.521 24.7747C244.516 24.7747 246.862 23.705 246.862 20.5493C246.862 17.3937 244.573 16.324 241.603 16.324H228.118V24.7747H241.521Z" fill="#333333"/>
<mask id="mask0_0_62" style="mask-type:luminance" maskUnits="userSpaceOnUse" x="0" y="0" width="13" height="48">
<path d="M0.0189974 0C0 0.315561 0 0.672145 0 1.01611C0 7.51982 2.11821 10.9121 3.98946 13.9068C5.68973 16.6364 7.1557 18.9936 7.1557 23.9669C7.1557 28.9401 5.69923 31.2973 3.98946 34.0301C2.11821 37.0216 0 40.4139 0 46.9176C0 47.2805 0 47.6371 0.0189974 47.9842H5.40161C5.38261 47.6497 5.38261 47.2868 5.38261 46.9176C5.38261 41.9444 6.85808 39.5871 8.54885 36.8544C10.4169 33.8629 12.5383 30.4706 12.5383 23.9826C12.5383 17.4947 10.4169 14.074 8.54885 11.0794C6.84858 8.34975 5.38261 5.99566 5.38261 1.01611C5.38261 0.665834 5.38261 0.315561 5.39844 0H0.0189974Z" fill="white"/>
</mask>
<g mask="url(#mask0_0_62)">
<mask id="mask1_0_62" style="mask-type:luminance" maskUnits="userSpaceOnUse" x="-1" y="-1" width="15" height="50">
<path d="M12.5372 -0.229938L-0.888519 0.0176392L0.0062518 48.2145L13.432 47.9669L12.5372 -0.229938Z" fill="white"/>
</mask>
<g mask="url(#mask1_0_62)">
<path d="M2.9731 -0.230347L3.87548 48.2146H-0.889709V-0.230347H2.9731Z" fill="#6B54EA"/>
<path d="M3.13459 -0.230347L4.0338 48.2146H3.87549L2.97311 -0.230347H3.13459Z" fill="#6B54EA"/>
<path d="M3.29289 -0.230347L4.19211 48.2146H4.03379L3.13458 -0.230347H3.29289Z" fill="#6C54E9"/>
<path d="M3.45122 -0.230347L4.35043 48.2146H4.19212L3.29291 -0.230347H3.45122Z" fill="#6D53E8"/>
<path d="M3.60951 -0.230347L4.50873 48.2146H4.35041L3.4512 -0.230347H3.60951Z" fill="#6E53E7"/>
<path d="M3.76784 -0.230347L4.67022 48.2146H4.50874L3.60953 -0.230347H3.76784Z" fill="#6E53E6"/>
<path d="M3.92613 -0.230347L4.82851 48.2146H4.6702L3.76782 -0.230347H3.92613Z" fill="#6F52E5"/>
<path d="M4.08763 -0.230347L4.98684 48.2146H4.82853L3.92615 -0.230347H4.08763Z" fill="#7052E4"/>
<path d="M4.24593 -0.230347L5.14514 48.2146H4.98683L4.08762 -0.230347H4.24593Z" fill="#7151E3"/>
<path d="M4.40425 -0.230347L5.30347 48.2146H5.14515L4.24594 -0.230347H4.40425Z" fill="#7251E2"/>
<path d="M4.56255 -0.230347L5.46493 48.2146H5.30345L4.40424 -0.230347H4.56255Z" fill="#7351E1"/>
<path d="M4.72087 -0.230347L5.62325 48.2146H5.46494L4.56256 -0.230347H4.72087Z" fill="#7450E0"/>
<path d="M4.88233 -0.230347L5.78155 48.2146H5.62323L4.72086 -0.230347H4.88233Z" fill="#7450DF"/>
<path d="M5.04067 -0.230347L5.93988 48.2146H5.78157L4.88235 -0.230347H5.04067Z" fill="#7550DE"/>
<path d="M5.19896 -0.230347L6.09817 48.2146H5.93986L5.04065 -0.230347H5.19896Z" fill="#764FDD"/>
<path d="M5.35729 -0.230347L6.2565 48.2146H6.09819L5.19897 -0.230347H5.35729Z" fill="#774FDC"/>
<path d="M5.51558 -0.230347L6.41796 48.2146H6.25648L5.35727 -0.230347H5.51558Z" fill="#784EDB"/>
<path d="M5.67707 -0.230347L6.57629 48.2146H6.41797L5.51559 -0.230347H5.67707Z" fill="#794EDA"/>
<path d="M5.83538 -0.230347L6.73459 48.2146H6.57628L5.67706 -0.230347H5.83538Z" fill="#7A4ED9"/>
<path d="M5.9937 -0.230347L6.89291 48.2146H6.7346L5.83539 -0.230347H5.9937Z" fill="#7A4DD8"/>
<path d="M6.15199 -0.230347L7.05437 48.2146H6.8929L5.99368 -0.230347H6.15199Z" fill="#7B4DD7"/>
<path d="M6.31032 -0.230347L7.2127 48.2146H7.05439L6.15201 -0.230347H6.31032Z" fill="#7C4DD6"/>
<path d="M6.47181 -0.230347L7.37102 48.2146H7.21271L6.31033 -0.230347H6.47181Z" fill="#7D4CD5"/>
<path d="M6.63011 -0.230347L7.52933 48.2146H7.37101L6.4718 -0.230347H6.63011Z" fill="#7E4CD4"/>
<path d="M6.78841 -0.230347L7.68762 48.2146H7.52931L6.6301 -0.230347H6.78841Z" fill="#7F4BD3"/>
<path d="M6.94673 -0.230347L7.84595 48.2146H7.68763L6.78842 -0.230347H6.94673Z" fill="#7F4BD2"/>
<path d="M7.10506 -0.230347L8.00744 48.2146H7.84596L6.94675 -0.230347H7.10506Z" fill="#804BD1"/>
<path d="M7.26652 -0.230347L8.16573 48.2146H8.00742L7.10504 -0.230347H7.26652Z" fill="#814AD0"/>
<path d="M7.42485 -0.230347L8.32406 48.2146H8.16575L7.26654 -0.230347H7.42485Z" fill="#824ACF"/>
<path d="M7.58315 -0.230347L8.48236 48.2146H8.32405L7.42484 -0.230347H7.58315Z" fill="#834ACE"/>
<path d="M7.74147 -0.230347L8.64385 48.2146H8.48237L7.58316 -0.230347H7.74147Z" fill="#8449CD"/>
<path d="M7.89977 -0.230347L8.80215 48.2146H8.64383L7.74146 -0.230347H7.89977Z" fill="#8549CC"/>
<path d="M8.06126 -0.230347L8.96047 48.2146H8.80216L7.89978 -0.230347H8.06126Z" fill="#8548CB"/>
<path d="M8.21956 -0.230347L9.11877 48.2146H8.96046L8.06125 -0.230347H8.21956Z" fill="#8648CA"/>
<path d="M8.37789 -0.230347L9.2771 48.2146H9.11879L8.21957 -0.230347H8.37789Z" fill="#8748C9"/>
<path d="M8.53618 -0.230347L9.43539 48.2146H9.27708L8.37787 -0.230347H8.53618Z" fill="#8847C8"/>
<path d="M8.69451 -0.230347L9.59688 48.2146H9.43541L8.53619 -0.230347H8.69451Z" fill="#8947C7"/>
<path d="M8.8528 -0.230347L9.75518 48.2146H9.59687L8.69449 -0.230347H8.8528Z" fill="#8A47C6"/>
<path d="M9.01429 -0.230347L9.9135 48.2146H9.75519L8.85281 -0.230347H9.01429Z" fill="#8B46C5"/>
<path d="M9.17259 -0.230347L10.0718 48.2146H9.91349L9.01428 -0.230347H9.17259Z" fill="#8B46C4"/>
<path d="M9.33092 -0.230347L10.2301 48.2146H10.0718L9.17261 -0.230347H9.33092Z" fill="#8C45C3"/>
<path d="M9.48921 -0.230347L10.3916 48.2146H10.2301L9.3309 -0.230347H9.48921Z" fill="#8D45C2"/>
<path d="M9.64754 -0.230347L10.5499 48.2146H10.3916L9.48923 -0.230347H9.64754Z" fill="#8E45C1"/>
<path d="M9.809 -0.230347L10.7082 48.2146H10.5499L9.64752 -0.230347H9.809Z" fill="#8F44C0"/>
<path d="M9.96733 -0.230347L10.8665 48.2146H10.7082L9.80902 -0.230347H9.96733Z" fill="#9044BF"/>
<path d="M10.1256 -0.230347L11.0248 48.2146H10.8665L9.96732 -0.230347H10.1256Z" fill="#9144BE"/>
<path d="M10.284 -0.230347L11.1863 48.2146H11.0249L10.1256 -0.230347H10.284Z" fill="#9143BD"/>
<path d="M10.4454 -0.230347L11.3447 48.2146H11.1863L10.284 -0.230347H10.4454Z" fill="#9243BC"/>
<path d="M10.6037 -0.230347L11.503 48.2146H11.3446L10.4454 -0.230347H10.6037Z" fill="#9342BB"/>
<path d="M10.762 -0.230347L11.6613 48.2146H11.5029L10.6037 -0.230347H10.762Z" fill="#9442BA"/>
<path d="M10.9204 -0.230347L11.8196 48.2146H11.6613L10.7621 -0.230347H10.9204Z" fill="#9542B9"/>
<path d="M11.0787 -0.230347L11.9811 48.2146H11.8196L10.9204 -0.230347H11.0787Z" fill="#9641B8"/>
<path d="M11.237 -0.230347L12.1394 48.2146H11.9811L11.0787 -0.230347H11.237Z" fill="#9741B7"/>
<path d="M11.3985 -0.230347L12.2977 48.2146H12.1394L11.237 -0.230347H11.3985Z" fill="#9741B6"/>
<path d="M11.5568 -0.230347L12.456 48.2146H12.2977L11.3985 -0.230347H11.5568Z" fill="#9840B5"/>
<path d="M11.7151 -0.230347L12.6143 48.2146H12.456L11.5568 -0.230347H11.7151Z" fill="#9940B4"/>
<path d="M11.8734 -0.230347L12.7758 48.2146H12.6143L11.7151 -0.230347H11.8734Z" fill="#9A3FB3"/>
<path d="M12.0317 -0.230347L12.9341 48.2146H12.7758L11.8734 -0.230347H12.0317Z" fill="#9B3FB2"/>
<path d="M12.1932 -0.230347L13.0924 48.2146H12.9341L12.0317 -0.230347H12.1932Z" fill="#9C3FB1"/>
<path d="M12.3515 -0.230347L13.2507 48.2146H13.0924L12.1932 -0.230347H12.3515Z" fill="#9D3EB0"/>
<path d="M12.5098 -0.230347L13.409 48.2146H13.2507L12.3515 -0.230347H12.5098Z" fill="#9D3EAF"/>
<path d="M12.6681 -0.230347L13.4312 40.7547V48.2146H13.409L12.5098 -0.230347H12.6681Z" fill="#9E3EAE"/>
</g>
</g>
<mask id="mask2_0_62" style="mask-type:luminance" maskUnits="userSpaceOnUse" x="7" y="0" width="13" height="48">
<path d="M7.31404 0C7.31404 0.315561 7.29504 0.665834 7.29504 1.01611C7.29504 7.41884 9.3911 10.7701 11.2307 13.7206C12.9816 16.5007 14.4602 18.8926 14.4602 23.9826C14.4602 29.0726 12.9816 31.4362 11.2307 34.2131C9.3911 37.1668 7.29504 40.5244 7.29504 46.9176C7.29504 47.2805 7.29504 47.6371 7.31404 47.9842H12.0001C12.0001 47.6434 11.9779 47.2868 11.9779 46.9176C11.9779 41.8497 13.4692 39.4515 15.2075 36.6714C17.0502 33.7209 19.1399 30.3601 19.1399 23.9669C19.1399 17.5736 17.0502 14.216 15.198 11.2592C13.4597 8.48544 11.9684 6.08717 11.9684 1.01611C11.9684 0.665834 11.9684 0.328184 11.9906 0L7.31404 0Z" fill="white"/>
</mask>
<g mask="url(#mask2_0_62)">
<mask id="mask3_0_62" style="mask-type:luminance" maskUnits="userSpaceOnUse" x="6" y="-1" width="15" height="50">
<path d="M19.1378 -0.215933L6.4054 0.0188599L7.29993 48.2031L20.0324 47.9683L19.1378 -0.215933Z" fill="white"/>
</mask>
<g mask="url(#mask3_0_62)">
<path d="M6.47183 -0.217712L7.37104 48.202H7.21273L6.40533 4.86282V-0.217712H6.47183Z" fill="#7D4CD5"/>
<path d="M6.63014 -0.217712L7.52936 48.202H7.37104L6.47183 -0.217712H6.63014Z" fill="#7E4CD4"/>
<path d="M6.78844 -0.217712L7.68765 48.202H7.52934L6.63013 -0.217712H6.78844Z" fill="#7F4BD3"/>
<path d="M6.94676 -0.217712L7.84598 48.202H7.68766L6.78845 -0.217712H6.94676Z" fill="#7F4BD2"/>
<path d="M7.10506 -0.217712L8.00744 48.202H7.84596L6.94675 -0.217712H7.10506Z" fill="#804BD1"/>
<path d="M7.26655 -0.217712L8.16576 48.202H8.00745L7.10507 -0.217712H7.26655Z" fill="#814AD0"/>
<path d="M7.42485 -0.217712L8.32406 48.202H8.16575L7.26654 -0.217712H7.42485Z" fill="#824ACF"/>
<path d="M7.58318 -0.217712L8.48239 48.202H8.32408L7.42487 -0.217712H7.58318Z" fill="#834ACE"/>
<path d="M7.7415 -0.217712L8.64072 48.202H8.4824L7.58319 -0.217712H7.7415Z" fill="#8449CD"/>
<path d="M7.8998 -0.217712L8.80218 48.202H8.6407L7.74149 -0.217712H7.8998Z" fill="#8549CC"/>
<path d="M8.06129 -0.217712L8.9605 48.202H8.80219L7.89981 -0.217712H8.06129Z" fill="#8548CB"/>
<path d="M8.21959 -0.217712L9.1188 48.202H8.96049L8.06128 -0.217712H8.21959Z" fill="#8648CA"/>
<path d="M8.37792 -0.217712L9.27713 48.202H9.11882L8.2196 -0.217712H8.37792Z" fill="#8748C9"/>
<path d="M8.53621 -0.217712L9.43542 48.202H9.27711L8.3779 -0.217712H8.53621Z" fill="#8847C8"/>
<path d="M8.69454 -0.217712L9.59691 48.202H9.43544L8.53622 -0.217712H8.69454Z" fill="#8947C7"/>
<path d="M8.856 -0.217712L9.75521 48.202H9.5969L8.69452 -0.217712H8.856Z" fill="#8A47C6"/>
<path d="M9.01433 -0.217712L9.91354 48.202H9.75523L8.85602 -0.217712H9.01433Z" fill="#8B46C5"/>
<path d="M9.17262 -0.217712L10.0718 48.202H9.91352L9.01431 -0.217712H9.17262Z" fill="#8B46C4"/>
<path d="M9.33095 -0.217712L10.2302 48.202H10.0718L9.17264 -0.217712H9.33095Z" fill="#8C45C3"/>
<path d="M9.48924 -0.217712L10.3916 48.202H10.2301L9.33093 -0.217712H9.48924Z" fill="#8D45C2"/>
<path d="M9.65074 -0.217712L10.5499 48.202H10.3916L9.48926 -0.217712H9.65074Z" fill="#8E45C1"/>
<path d="M9.80904 -0.217712L10.7083 48.202H10.5499L9.65073 -0.217712H9.80904Z" fill="#8F44C0"/>
<path d="M9.96736 -0.217712L10.8666 48.202H10.7083L9.80905 -0.217712H9.96736Z" fill="#9044BF"/>
<path d="M10.1257 -0.217712L11.0249 48.202H10.8666L9.96735 -0.217712H10.1257Z" fill="#9144BE"/>
<path d="M10.284 -0.217712L11.1832 48.202H11.0249L10.1257 -0.217712H10.284Z" fill="#9143BD"/>
<path d="M10.4454 -0.217712L11.3447 48.202H11.1832L10.284 -0.217712H10.4454Z" fill="#9243BC"/>
<path d="M10.6038 -0.217712L11.503 48.202H11.3447L10.4455 -0.217712H10.6038Z" fill="#9342BB"/>
<path d="M10.7621 -0.217712L11.6613 48.202H11.503L10.6038 -0.217712H10.7621Z" fill="#9442BA"/>
<path d="M10.9204 -0.217712L11.8196 48.202H11.6613L10.7621 -0.217712H10.9204Z" fill="#9542B9"/>
<path d="M11.0787 -0.217712L11.9811 48.202H11.8196L10.9204 -0.217712H11.0787Z" fill="#9641B8"/>
<path d="M11.2402 -0.217712L12.1394 48.202H11.9811L11.0787 -0.217712H11.2402Z" fill="#9741B7"/>
<path d="M11.3985 -0.217712L12.2977 48.202H12.1394L11.2402 -0.217712H11.3985Z" fill="#9741B6"/>
<path d="M11.5568 -0.217712L12.456 48.202H12.2977L11.3985 -0.217712H11.5568Z" fill="#9840B5"/>
<path d="M11.7151 -0.217712L12.6143 48.202H12.456L11.5568 -0.217712H11.7151Z" fill="#9940B4"/>
<path d="M11.8734 -0.217712L12.7758 48.202H12.6143L11.7151 -0.217712H11.8734Z" fill="#9A3FB3"/>
<path d="M12.0318 -0.217712L12.9341 48.202H12.7758L11.8734 -0.217712H12.0318Z" fill="#9B3FB2"/>
<path d="M12.1932 -0.217712L13.0924 48.202H12.9341L12.0317 -0.217712H12.1932Z" fill="#9C3FB1"/>
<path d="M12.3515 -0.217712L13.2507 48.202H13.0924L12.1932 -0.217712H12.3515Z" fill="#9D3EB0"/>
<path d="M12.5098 -0.217712L13.4091 48.202H13.2507L12.3515 -0.217712H12.5098Z" fill="#9D3EAF"/>
<path d="M12.6682 -0.217712L13.5674 48.202H13.4091L12.5099 -0.217712H12.6682Z" fill="#9E3EAE"/>
<path d="M12.8296 -0.217712L13.7288 48.202H13.5674L12.6682 -0.217712H12.8296Z" fill="#9F3DAD"/>
<path d="M12.988 -0.217712L13.8872 48.202H13.7289L12.8297 -0.217712H12.988Z" fill="#A03DAC"/>
<path d="M13.1463 -0.217712L14.0455 48.202H13.8872L12.9879 -0.217712H13.1463Z" fill="#A13CAB"/>
<path d="M13.3046 -0.217712L14.2038 48.202H14.0455L13.1463 -0.217712H13.3046Z" fill="#A23CAA"/>
<path d="M13.4629 -0.217712L14.3621 48.202H14.2038L13.3046 -0.217712H13.4629Z" fill="#A23CA9"/>
<path d="M13.6244 -0.217712L14.5236 48.202H14.3621L13.4629 -0.217712H13.6244Z" fill="#A33BA8"/>
<path d="M13.7827 -0.217712L14.6819 48.202H14.5236L13.6244 -0.217712H13.7827Z" fill="#A43BA7"/>
<path d="M13.941 -0.217712L14.8402 48.202H14.6819L13.7827 -0.217712H13.941Z" fill="#A53BA6"/>
<path d="M14.0993 -0.217712L14.9985 48.202H14.8402L13.941 -0.217712H14.0993Z" fill="#A63AA5"/>
<path d="M14.2576 -0.217712L15.1568 48.202H14.9985L14.0993 -0.217712H14.2576Z" fill="#A73AA4"/>
<path d="M14.4159 -0.217712L15.3183 48.202H15.1568L14.2576 -0.217712H14.4159Z" fill="#A839A3"/>
<path d="M14.5774 -0.217712L15.4766 48.202H15.3183L14.4159 -0.217712H14.5774Z" fill="#A839A1"/>
<path d="M14.7357 -0.217712L15.6349 48.202H15.4766L14.5774 -0.217712H14.7357Z" fill="#A939A0"/>
<path d="M14.894 -0.217712L15.7932 48.202H15.6349L14.7357 -0.217712H14.894Z" fill="#AA389F"/>
<path d="M15.0523 -0.217712L15.9515 48.202H15.7932L14.894 -0.217712H15.0523Z" fill="#AB389E"/>
<path d="M15.2106 -0.217712L16.113 48.202H15.9516L15.0523 -0.217712H15.2106Z" fill="#AC389D"/>
<path d="M15.3721 -0.217712L16.2713 48.202H16.113L15.2106 -0.217712H15.3721Z" fill="#AD379C"/>
<path d="M15.5304 -0.217712L16.4297 48.202H16.2713L15.3721 -0.217712H15.5304Z" fill="#AE379B"/>
<path d="M15.6887 -0.217712L16.588 48.202H16.4296L15.5304 -0.217712H15.6887Z" fill="#AE369A"/>
<path d="M15.8471 -0.217712L16.7463 48.202H16.588L15.6888 -0.217712H15.8471Z" fill="#AF3699"/>
<path d="M16.0054 -0.217712L16.9078 48.202H16.7463L15.8471 -0.217712H16.0054Z" fill="#B03698"/>
<path d="M16.1668 -0.217712L17.0661 48.202H16.9077L16.0054 -0.217712H16.1668Z" fill="#B13597"/>
<path d="M16.3252 -0.217712L17.2244 48.202H17.0661L16.1668 -0.217712H16.3252Z" fill="#B23596"/>
<path d="M16.4835 -0.217712L17.3827 48.202H17.2244L16.3252 -0.217712H16.4835Z" fill="#B33595"/>
<path d="M16.6418 -0.217712L17.541 48.202H17.3827L16.4835 -0.217712H16.6418Z" fill="#B43494"/>
<path d="M16.8001 -0.217712L17.7025 48.202H17.541L16.6418 -0.217712H16.8001Z" fill="#B43493"/>
<path d="M16.9616 -0.217712L17.8608 48.202H17.7025L16.8001 -0.217712H16.9616Z" fill="#B53492"/>
<path d="M17.1199 -0.217712L18.0191 48.202H17.8608L16.9616 -0.217712H17.1199Z" fill="#B63391"/>
<path d="M17.2782 -0.217712L18.1774 48.202H18.0191L17.1199 -0.217712H17.2782Z" fill="#B73390"/>
<path d="M17.4365 -0.217712L18.3357 48.202H18.1774L17.2782 -0.217712H17.4365Z" fill="#B8328F"/>
<path d="M17.5948 -0.217712L18.4972 48.202H18.3357L17.4365 -0.217712H17.5948Z" fill="#B9328E"/>
<path d="M17.7563 -0.217712L18.6555 48.202H18.4972L17.5948 -0.217712H17.7563Z" fill="#BA328D"/>
<path d="M17.9146 -0.217712L18.8138 48.202H18.6555L17.7563 -0.217712H17.9146Z" fill="#BA318C"/>
<path d="M18.0729 -0.217712L18.9721 48.202H18.8138L17.9146 -0.217712H18.0729Z" fill="#BB318B"/>
<path d="M18.2312 -0.217712L19.1305 48.202H18.9721L18.0729 -0.217712H18.2312Z" fill="#BC318A"/>
<path d="M18.3895 -0.217712L19.2888 48.202H19.1304L18.2312 -0.217712H18.3895Z" fill="#BD3089"/>
<path d="M18.551 -0.217712L19.4502 48.202H19.2888L18.3896 -0.217712H18.551Z" fill="#BE3088"/>
<path d="M18.7093 -0.217712L19.6085 48.202H19.4502L18.551 -0.217712H18.7093Z" fill="#BF2F87"/>
<path d="M18.8677 -0.217712L19.7669 48.202H19.6086L18.7094 -0.217712H18.8677Z" fill="#C02F86"/>
<path d="M19.026 -0.217712L19.9252 48.202H19.7669L18.8676 -0.217712H19.026Z" fill="#C02F85"/>
<path d="M19.1843 -0.217712L20.0328 45.4377V48.202H19.9252L19.026 -0.217712H19.1843Z" fill="#C12E84"/>
</g>
</g>
<mask id="mask4_0_62" style="mask-type:luminance" maskUnits="userSpaceOnUse" x="14" y="0" width="12" height="48">
<path d="M14.6154 0C14.6154 0.315561 14.5964 0.665834 14.5964 1.01611C14.5964 7.32733 16.6576 10.6281 18.4782 13.5376C20.2386 16.3587 21.7616 18.798 21.7616 23.9826C21.7616 29.1673 20.2386 31.5877 18.4782 34.3962C16.6576 37.3119 14.5964 40.6127 14.5964 46.9208C14.5964 47.2837 14.5964 47.6403 14.6217 47.9874H18.5985C18.5795 47.6403 18.5732 47.29 18.5732 46.9208C18.5732 41.7519 20.0961 39.3158 21.8566 36.5073C23.6772 33.5915 25.7384 30.2812 25.7384 23.9795C25.7384 17.6777 23.6772 14.358 21.8471 11.4422C20.0866 8.62113 18.5637 6.18815 18.5637 1.02873C18.5637 0.678456 18.5637 0.340806 18.589 0.0126224L14.6154 0Z" fill="white"/>
</mask>
<g mask="url(#mask4_0_62)">
<mask id="mask5_0_62" style="mask-type:luminance" maskUnits="userSpaceOnUse" x="13" y="-1" width="14" height="50">
<path d="M25.7396 -0.244282L13.7079 -0.00445557L14.6747 48.1754L26.7064 47.9356L25.7396 -0.244282Z" fill="white"/>
</mask>
<g mask="url(#mask5_0_62)">
<path d="M13.7827 -0.205017L14.6819 48.1894H14.5236L13.7067 4.35169V-0.205017H13.7827Z" fill="#A43BA7"/>
<path d="M13.941 -0.205017L14.8402 48.1894H14.6819L13.7827 -0.205017H13.941Z" fill="#A53BA6"/>
<path d="M14.0993 -0.205017L14.9985 48.1894H14.8402L13.941 -0.205017H14.0993Z" fill="#A63AA5"/>
<path d="M14.2576 -0.205017L15.1568 48.1894H14.9985L14.0993 -0.205017H14.2576Z" fill="#A73AA4"/>
<path d="M14.4191 -0.205017L15.3183 48.1894H15.1568L14.2576 -0.205017H14.4191Z" fill="#A839A3"/>
<path d="M14.5774 -0.205017L15.4766 48.1894H15.3183L14.4191 -0.205017H14.5774Z" fill="#A839A1"/>
<path d="M14.7357 -0.205017L15.6349 48.1894H15.4766L14.5774 -0.205017H14.7357Z" fill="#A939A0"/>
<path d="M14.894 -0.205017L15.7932 48.1894H15.6349L14.7357 -0.205017H14.894Z" fill="#AA389F"/>
<path d="M15.0523 -0.205017L15.9515 48.1894H15.7932L14.894 -0.205017H15.0523Z" fill="#AB389E"/>
<path d="M15.2106 -0.205017L16.113 48.1894H15.9515L15.0523 -0.205017H15.2106Z" fill="#AC389D"/>
<path d="M15.3721 -0.205017L16.2713 48.1894H16.113L15.2106 -0.205017H15.3721Z" fill="#AD379C"/>
<path d="M15.5304 -0.205017L16.4296 48.1894H16.2713L15.3721 -0.205017H15.5304Z" fill="#AE379B"/>
<path d="M15.6887 -0.205017L16.588 48.1894H16.4296L15.5304 -0.205017H15.6887Z" fill="#AE369A"/>
<path d="M15.847 -0.205017L16.7462 48.1894H16.5879L15.6887 -0.205017H15.847Z" fill="#AF3699"/>
<path d="M16.0085 -0.205017L16.9046 48.1894H16.7463L15.847 -0.205017H16.0085Z" fill="#B03698"/>
<path d="M16.1668 -0.205017L17.066 48.1894H16.9046L16.0085 -0.205017H16.1668Z" fill="#B13597"/>
<path d="M16.3252 -0.205017L17.2244 48.1894H17.0661L16.1668 -0.205017H16.3252Z" fill="#B23596"/>
<path d="M16.4834 -0.205017L17.3827 48.1894H17.2243L16.3251 -0.205017H16.4834Z" fill="#B33595"/>
<path d="M16.6418 -0.205017L17.541 48.1894H17.3827L16.4835 -0.205017H16.6418Z" fill="#B43494"/>
<path d="M16.8033 -0.205017L17.7025 48.1894H17.541L16.6418 -0.205017H16.8033Z" fill="#B43493"/>
<path d="M16.9616 -0.205017L17.8608 48.1894H17.7025L16.8033 -0.205017H16.9616Z" fill="#B53492"/>
<path d="M17.1199 -0.205017L18.0191 48.1894H17.8608L16.9615 -0.205017H17.1199Z" fill="#B63391"/>
<path d="M17.2782 -0.205017L18.1774 48.1894H18.0191L17.1199 -0.205017H17.2782Z" fill="#B73390"/>
<path d="M17.4365 -0.205017L18.3357 48.1894H18.1774L17.2782 -0.205017H17.4365Z" fill="#B8328F"/>
<path d="M17.5948 -0.205017L18.4972 48.1894H18.3357L17.4365 -0.205017H17.5948Z" fill="#B9328E"/>
<path d="M17.7563 -0.205017L18.6555 48.1894H18.4972L17.5948 -0.205017H17.7563Z" fill="#BA328D"/>
<path d="M17.9146 -0.205017L18.8138 48.1894H18.6555L17.7563 -0.205017H17.9146Z" fill="#BA318C"/>
<path d="M18.0729 -0.205017L18.9721 48.1894H18.8138L17.9146 -0.205017H18.0729Z" fill="#BB318B"/>
<path d="M18.2312 -0.205017L19.1304 48.1894H18.9721L18.0729 -0.205017H18.2312Z" fill="#BC318A"/>
<path d="M18.3927 -0.205017L19.2888 48.1894H19.1304L18.2312 -0.205017H18.3927Z" fill="#BD3089"/>
<path d="M18.551 -0.205017L19.4502 48.1894H19.2887L18.3927 -0.205017H18.551Z" fill="#BE3088"/>
<path d="M18.7093 -0.205017L19.6085 48.1894H19.4502L18.551 -0.205017H18.7093Z" fill="#BF2F87"/>
<path d="M18.8676 -0.205017L19.7668 48.1894H19.6085L18.7093 -0.205017H18.8676Z" fill="#C02F86"/>
<path d="M19.026 -0.205017L19.9252 48.1894H19.7669L18.8676 -0.205017H19.026Z" fill="#C02F85"/>
<path d="M19.1843 -0.205017L20.0835 48.1894H19.9252L19.0259 -0.205017H19.1843Z" fill="#C12E84"/>
<path d="M19.3457 -0.205017L20.245 48.1894H20.0835L19.1843 -0.205017H19.3457Z" fill="#C22E83"/>
<path d="M19.504 -0.205017L20.4033 48.1894H20.2449L19.3457 -0.205017H19.504Z" fill="#C32E82"/>
<path d="M19.6624 -0.205017L20.5616 48.1894H20.4033L19.5041 -0.205017H19.6624Z" fill="#C42D81"/>
<path d="M19.8207 -0.205017L20.7199 48.1894H20.5616L19.6624 -0.205017H19.8207Z" fill="#C52D80"/>
<path d="M19.979 -0.205017L20.8782 48.1894H20.7199L19.8207 -0.205017H19.979Z" fill="#C52C7F"/>
<path d="M20.1405 -0.205017L21.0397 48.1894H20.8782L19.979 -0.205017H20.1405Z" fill="#C62C7E"/>
<path d="M20.2988 -0.205017L21.198 48.1894H21.0397L20.1405 -0.205017H20.2988Z" fill="#C72C7D"/>
<path d="M20.4571 -0.205017L21.3563 48.1894H21.198L20.2988 -0.205017H20.4571Z" fill="#C82B7C"/>
<path d="M20.6154 -0.205017L21.5146 48.1894H21.3563L20.4571 -0.205017H20.6154Z" fill="#C92B7B"/>
<path d="M20.7737 -0.205017L21.6729 48.1894H21.5146L20.6154 -0.205017H20.7737Z" fill="#CA2B7A"/>
<path d="M20.9352 -0.205017L21.8344 48.1894H21.6729L20.7737 -0.205017H20.9352Z" fill="#CB2A79"/>
<path d="M21.0935 -0.205017L21.9927 48.1894H21.8344L20.9352 -0.205017H21.0935Z" fill="#CB2A78"/>
<path d="M21.2518 -0.205017L22.151 48.1894H21.9927L21.0935 -0.205017H21.2518Z" fill="#CC2977"/>
<path d="M21.4101 -0.205017L22.3094 48.1894H22.151L21.2518 -0.205017H21.4101Z" fill="#CD2976"/>
<path d="M21.5684 -0.205017L22.4676 48.1894H22.3093L21.4101 -0.205017H21.5684Z" fill="#CE2975"/>
<path d="M21.7299 -0.205017L22.6291 48.1894H22.4677L21.5685 -0.205017H21.7299Z" fill="#CF2874"/>
<path d="M21.8882 -0.205017L22.7874 48.1894H22.6291L21.7299 -0.205017H21.8882Z" fill="#D02873"/>
<path d="M22.0466 -0.205017L22.9458 48.1894H22.7875L21.8882 -0.205017H22.0466Z" fill="#D12872"/>
<path d="M22.2049 -0.205017L23.1041 48.1894H22.9458L22.0465 -0.205017H22.2049Z" fill="#D12771"/>
<path d="M22.3632 -0.205017L23.2624 48.1894H23.1041L22.2049 -0.205017H22.3632Z" fill="#D22770"/>
<path d="M22.5246 -0.205017L23.4207 48.1894H23.2624L22.3632 -0.205017H22.5246Z" fill="#D3266F"/>
<path d="M22.683 -0.205017L23.5822 48.1894H23.4207L22.5247 -0.205017H22.683Z" fill="#D4266E"/>
<path d="M22.8413 -0.205017L23.7405 48.1894H23.5822L22.683 -0.205017H22.8413Z" fill="#D5266D"/>
<path d="M22.9996 -0.205017L23.8988 48.1894H23.7405L22.8413 -0.205017H22.9996Z" fill="#D6256C"/>
<path d="M23.1579 -0.205017L24.0571 48.1894H23.8988L22.9996 -0.205017H23.1579Z" fill="#D7256B"/>
<path d="M23.3162 -0.205017L24.2186 48.1894H24.0571L23.1579 -0.205017H23.3162Z" fill="#D7256A"/>
<path d="M23.4777 -0.205017L24.3769 48.1894H24.2186L23.3162 -0.205017H23.4777Z" fill="#D82469"/>
<path d="M23.636 -0.205017L24.5352 48.1894H24.3769L23.4777 -0.205017H23.636Z" fill="#D92468"/>
<path d="M23.7943 -0.205017L24.6935 48.1894H24.5352L23.636 -0.205017H23.7943Z" fill="#DA2367"/>
<path d="M23.9526 -0.205017L24.8518 48.1894H24.6935L23.7943 -0.205017H23.9526Z" fill="#DB2366"/>
<path d="M24.1141 -0.205017L25.0133 48.1894H24.8518L23.9526 -0.205017H24.1141Z" fill="#DC2365"/>
<path d="M24.2724 -0.205017L25.1716 48.1894H25.0133L24.1141 -0.205017H24.2724Z" fill="#DD2264"/>
<path d="M24.4307 -0.205017L25.3299 48.1894H25.1716L24.2724 -0.205017H24.4307Z" fill="#DD2263"/>
<path d="M24.589 -0.205017L25.4882 48.1894H25.3299L24.4307 -0.205017H24.589Z" fill="#DE2262"/>
<path d="M24.7473 -0.205017L25.6465 48.1894H25.4882L24.589 -0.205017H24.7473Z" fill="#DF2161"/>
<path d="M24.9057 -0.205017L25.8049 48.1894H25.6466L24.7473 -0.205017H24.9057Z" fill="#E02160"/>
<path d="M25.0671 -0.205017L25.9664 48.1894H25.8049L24.9057 -0.205017H25.0671Z" fill="#E1205F"/>
<path d="M25.2255 -0.205017L26.1247 48.1894H25.9663L25.0671 -0.205017H25.2255Z" fill="#E2205E"/>
<path d="M25.3838 -0.205017L26.283 48.1894H26.1247L25.2255 -0.205017H25.3838Z" fill="#E2205D"/>
<path d="M25.5421 -0.205017L26.4413 48.1894H26.283L25.3838 -0.205017H25.5421Z" fill="#E31F5C"/>
<path d="M25.7004 -0.205017L26.6028 48.1894H26.4413L25.5421 -0.205017H25.7004Z" fill="#E41F5B"/>
<path d="M25.8619 -0.205017L26.6313 41.2566V48.1894H26.6028L25.7004 -0.205017H25.8619Z" fill="#E51F5A"/>
</g>
</g>
<mask id="mask6_0_62" style="mask-type:luminance" maskUnits="userSpaceOnUse" x="21" y="0" width="12" height="48">
<path d="M21.9104 0C21.9104 0.315561 21.9104 0.665834 21.9104 1.01611C21.9104 7.22319 23.8545 10.3409 25.7352 13.3577C27.4386 16.0936 29.0566 18.697 29.0566 23.9826C29.0566 29.2683 27.4386 31.8496 25.7194 34.5918C23.8386 37.6086 21.8946 40.7263 21.8946 46.9334C21.8946 47.2963 21.8946 47.6529 21.9167 48H25.2001C25.2001 47.6592 25.178 47.3026 25.178 46.9334C25.178 41.6604 26.7959 39.0665 28.5088 36.3242C30.4086 33.3075 32.34 30.1897 32.34 23.9826C32.34 17.7756 30.3959 14.6452 28.4962 11.6284C26.7959 8.87673 25.178 6.28282 25.178 1.01611C25.178 0.665834 25.178 0.328184 25.2001 0H21.9104Z" fill="white"/>
</mask>
<g mask="url(#mask6_0_62)">
<mask id="mask7_0_62" style="mask-type:luminance" maskUnits="userSpaceOnUse" x="21" y="-1" width="13" height="50">
<path d="M32.339 -0.191104L21.0027 0.0179443L21.8967 48.177L33.2331 47.9679L32.339 -0.191104Z" fill="white"/>
</mask>
<g mask="url(#mask7_0_62)">
<path d="M21.0935 -0.192505L21.9927 48.1767H21.8344L21.0049 3.54374V-0.192505H21.0935Z" fill="#CB2A78"/>
<path d="M21.2518 -0.192505L22.151 48.1767H21.9927L21.0935 -0.192505H21.2518Z" fill="#CC2977"/>
<path d="M21.4101 -0.192505L22.3094 48.1767H22.151L21.2518 -0.192505H21.4101Z" fill="#CD2976"/>
<path d="M21.5716 -0.192505L22.4676 48.1767H22.3093L21.4101 -0.192505H21.5716Z" fill="#CE2975"/>
<path d="M21.7299 -0.192505L22.6291 48.1767H22.4677L21.5716 -0.192505H21.7299Z" fill="#CF2874"/>
<path d="M21.8882 -0.192505L22.7874 48.1767H22.6291L21.7299 -0.192505H21.8882Z" fill="#D02873"/>
<path d="M22.0466 -0.192505L22.9458 48.1767H22.7875L21.8882 -0.192505H22.0466Z" fill="#D12872"/>
<path d="M22.2049 -0.192505L23.1041 48.1767H22.9458L22.0465 -0.192505H22.2049Z" fill="#D12771"/>
<path d="M22.3632 -0.192505L23.2624 48.1767H23.1041L22.2049 -0.192505H22.3632Z" fill="#D22770"/>
<path d="M22.5246 -0.192505L23.4207 48.1767H23.2624L22.3632 -0.192505H22.5246Z" fill="#D3266F"/>
<path d="M22.683 -0.192505L23.5822 48.1767H23.4207L22.5247 -0.192505H22.683Z" fill="#D4266E"/>
<path d="M22.8413 -0.192505L23.7405 48.1767H23.5822L22.683 -0.192505H22.8413Z" fill="#D5266D"/>
<path d="M22.9996 -0.192505L23.8988 48.1767H23.7405L22.8413 -0.192505H22.9996Z" fill="#D6256C"/>
<path d="M23.1579 -0.192505L24.0571 48.1767H23.8988L22.9996 -0.192505H23.1579Z" fill="#D7256B"/>
<path d="M23.3194 -0.192505L24.2186 48.1767H24.0571L23.1579 -0.192505H23.3194Z" fill="#D7256A"/>
<path d="M23.4777 -0.192505L24.3769 48.1767H24.2186L23.3194 -0.192505H23.4777Z" fill="#D82469"/>
<path d="M23.636 -0.192505L24.5352 48.1767H24.3769L23.4777 -0.192505H23.636Z" fill="#D92468"/>
<path d="M23.7943 -0.192505L24.6935 48.1767H24.5352L23.636 -0.192505H23.7943Z" fill="#DA2367"/>
<path d="M23.9526 -0.192505L24.8518 48.1767H24.6935L23.7943 -0.192505H23.9526Z" fill="#DB2366"/>
<path d="M24.1141 -0.192505L25.0101 48.1767H24.8518L23.9526 -0.192505H24.1141Z" fill="#DC2365"/>
<path d="M24.2724 -0.192505L25.1716 48.1767H25.0102L24.1141 -0.192505H24.2724Z" fill="#DD2264"/>
<path d="M24.4307 -0.192505L25.3299 48.1767H25.1716L24.2724 -0.192505H24.4307Z" fill="#DD2263"/>
<path d="M24.589 -0.192505L25.4882 48.1767H25.3299L24.4307 -0.192505H24.589Z" fill="#DE2262"/>
<path d="M24.7474 -0.192505L25.6466 48.1767H25.4883L24.5891 -0.192505H24.7474Z" fill="#DF2161"/>
<path d="M24.9088 -0.192505L25.8049 48.1767H25.6466L24.7473 -0.192505H24.9088Z" fill="#E02160"/>
<path d="M25.0671 -0.192505L25.9663 48.1767H25.8049L24.9088 -0.192505H25.0671Z" fill="#E1205F"/>
<path d="M25.2255 -0.192505L26.1247 48.1767H25.9663L25.0671 -0.192505H25.2255Z" fill="#E2205E"/>
<path d="M25.3838 -0.192505L26.283 48.1767H26.1247L25.2255 -0.192505H25.3838Z" fill="#E2205D"/>
<path d="M25.5421 -0.192505L26.4413 48.1767H26.283L25.3838 -0.192505H25.5421Z" fill="#E31F5C"/>
<path d="M25.7036 -0.192505L26.5996 48.1767H26.4413L25.5421 -0.192505H25.7036Z" fill="#E41F5B"/>
<path d="M25.8619 -0.192505L26.7611 48.1767H26.5996L25.7036 -0.192505H25.8619Z" fill="#E51F5A"/>
<path d="M26.0202 -0.192505L26.9194 48.1767H26.7611L25.8619 -0.192505H26.0202Z" fill="#E61E59"/>
<path d="M26.1785 -0.192505L27.0777 48.1767H26.9194L26.0202 -0.192505H26.1785Z" fill="#E71E58"/>
<path d="M26.3368 -0.192505L27.236 48.1767H27.0777L26.1785 -0.192505H26.3368Z" fill="#E81D57"/>
<path d="M26.4983 -0.192505L27.3943 48.1767H27.236L26.3368 -0.192505H26.4983Z" fill="#E81D56"/>
<path d="M26.6566 -0.192505L27.5558 48.1767H27.3943L26.4983 -0.192505H26.6566Z" fill="#E91D55"/>
<path d="M26.8149 -0.192505L27.7141 48.1767H27.5558L26.6566 -0.192505H26.8149Z" fill="#EA1C54"/>
<path d="M26.9732 -0.192505L27.8724 48.1767H27.7141L26.8149 -0.192505H26.9732Z" fill="#EB1C53"/>
<path d="M27.141 -0.192505L28.0402 48.1767H27.8724L26.9732 -0.192505H27.141Z" fill="#EB1C53"/>
<path d="M27.3088 -0.192505L28.208 48.1767H28.0402L27.141 -0.192505H27.3088Z" fill="#EB1D53"/>
<path d="M27.4766 -0.192505L28.3759 48.1767H28.2081L27.3088 -0.192505H27.4766Z" fill="#EB1E53"/>
<path d="M27.6445 -0.192505L28.5405 48.1767H28.3759L27.4767 -0.192505H27.6445Z" fill="#EB1F53"/>
<path d="M27.8123 -0.192505L28.7083 48.1767H28.5405L27.6445 -0.192505H27.8123Z" fill="#EC2052"/>
<path d="M27.9769 -0.192505L28.8761 48.1767H28.7083L27.8123 -0.192505H27.9769Z" fill="#EC2152"/>
<path d="M28.1447 -0.192505L29.0439 48.1767H28.8761L27.9769 -0.192505H28.1447Z" fill="#EC2252"/>
<path d="M28.3125 -0.192505L29.2117 48.1767H29.0439L28.1447 -0.192505H28.3125Z" fill="#EC2352"/>
<path d="M28.4803 -0.192505L29.3796 48.1767H29.2117L28.3125 -0.192505H28.4803Z" fill="#EC2452"/>
<path d="M28.6482 -0.192505L29.5474 48.1767H29.3796L28.4803 -0.192505H28.6482Z" fill="#EC2552"/>
<path d="M28.816 -0.192505L29.7152 48.1767H29.5474L28.6482 -0.192505H28.816Z" fill="#EC2652"/>
<path d="M28.9838 -0.192505L29.883 48.1767H29.7152L28.816 -0.192505H28.9838Z" fill="#ED2751"/>
<path d="M29.1516 -0.192505L30.0508 48.1767H29.883L28.9838 -0.192505H29.1516Z" fill="#ED2851"/>
<path d="M29.3194 -0.192505L30.2186 48.1767H30.0508L29.1516 -0.192505H29.3194Z" fill="#ED2951"/>
<path d="M29.4872 -0.192505L30.3833 48.1767H30.2186L29.3194 -0.192505H29.4872Z" fill="#ED2A51"/>
<path d="M29.6519 -0.192505L30.5511 48.1767H30.3833L29.4872 -0.192505H29.6519Z" fill="#ED2B51"/>
<path d="M29.8197 -0.192505L30.7189 48.1767H30.5511L29.6519 -0.192505H29.8197Z" fill="#ED2C51"/>
<path d="M29.9875 -0.192505L30.8867 48.1767H30.7189L29.8197 -0.192505H29.9875Z" fill="#EE2D51"/>
<path d="M30.1553 -0.192505L31.0545 48.1767H30.8867L29.9875 -0.192505H30.1553Z" fill="#EE2E50"/>
<path d="M30.3231 -0.192505L31.2223 48.1767H31.0545L30.1553 -0.192505H30.3231Z" fill="#EE2F50"/>
<path d="M30.4909 -0.192505L31.3901 48.1767H31.2223L30.3231 -0.192505H30.4909Z" fill="#EE3050"/>
<path d="M30.6587 -0.192505L31.5579 48.1767H31.3901L30.4909 -0.192505H30.6587Z" fill="#EE3150"/>
<path d="M30.8265 -0.192505L31.7257 48.1767H31.5579L30.6587 -0.192505H30.8265Z" fill="#EE3250"/>
<path d="M30.9943 -0.192505L31.8904 48.1767H31.7258L30.8265 -0.192505H30.9943Z" fill="#EE3350"/>
<path d="M31.159 -0.192505L32.0582 48.1767H31.8904L30.9943 -0.192505H31.159Z" fill="#EF3450"/>
<path d="M31.3268 -0.192505L32.226 48.1767H32.0582L31.159 -0.192505H31.3268Z" fill="#EF354F"/>
<path d="M31.4946 -0.192505L32.3938 48.1767H32.226L31.3268 -0.192505H31.4946Z" fill="#EF364F"/>
<path d="M31.6624 -0.192505L32.5616 48.1767H32.3938L31.4946 -0.192505H31.6624Z" fill="#EF374F"/>
<path d="M31.8302 -0.192505L32.7294 48.1767H32.5616L31.6624 -0.192505H31.8302Z" fill="#EF384F"/>
<path d="M31.998 -0.192505L32.8973 48.1767H32.7294L31.8302 -0.192505H31.998Z" fill="#EF394F"/>
<path d="M32.1659 -0.192505L33.0651 48.1767H32.8973L31.998 -0.192505H32.1659Z" fill="#EF3A4F"/>
<path d="M32.3337 -0.192505L33.2329 48.1767H33.0651L32.1659 -0.192505H32.3337Z" fill="#F03B4F"/>
<path d="M32.5015 -0.192505L33.2329 39.2937V48.1767L32.3336 -0.192505H32.5015Z" fill="#F03C4E"/>
</g>
</g>
<mask id="mask8_0_62" style="mask-type:luminance" maskUnits="userSpaceOnUse" x="29" y="0" width="10" height="48">
<path d="M29.2054 0C29.2054 0.334495 29.2054 0.665834 29.2054 1.01611C29.2054 7.12221 31.1273 10.1989 32.9827 13.1747C34.7273 15.9642 36.3706 18.596 36.3706 23.9669C36.3706 29.3377 34.7273 31.9695 32.9827 34.7622C31.1273 37.738 29.2054 40.8115 29.2054 46.9176C29.2054 47.2805 29.2054 47.6371 29.2275 47.9842H31.8207C31.8017 47.6371 31.7954 47.2868 31.7954 46.9176C31.7954 41.5531 33.4386 38.915 35.1801 36.1254C37.0228 33.1497 38.9447 30.073 38.9447 23.9826C38.9447 17.8923 37.0228 14.803 35.1642 11.8272C33.4228 9.03767 31.7795 6.39958 31.7795 1.03188C31.7795 0.681612 31.7795 0.343962 31.7985 0.0157781L29.2054 0Z" fill="white"/>
</mask>
<g mask="url(#mask8_0_62)">
<mask id="mask9_0_62" style="mask-type:luminance" maskUnits="userSpaceOnUse" x="28" y="-1" width="12" height="50">
<path d="M38.9462 -0.239222L28.3013 -0.0270386L29.2676 48.1276L39.9125 47.9154L38.9462 -0.239222Z" fill="white"/>
</mask>
<g mask="url(#mask9_0_62)">
<path d="M28.3125 -0.179688L29.2117 48.1643H29.0439L28.2998 8.05961V-0.179688H28.3125Z" fill="#EC2352"/>
<path d="M28.4803 -0.179688L29.3795 48.1643H29.2117L28.3125 -0.179688H28.4803Z" fill="#EC2452"/>
<path d="M28.6481 -0.179688L29.5473 48.1643H29.3795L28.4803 -0.179688H28.6481Z" fill="#EC2552"/>
<path d="M28.8159 -0.179688L29.7152 48.1643H29.5473L28.6481 -0.179688H28.8159Z" fill="#EC2652"/>
<path d="M28.9837 -0.179688L29.8829 48.1643H29.7151L28.8159 -0.179688H28.9837Z" fill="#ED2751"/>
<path d="M29.1515 -0.179688L30.0508 48.1643H29.8829L28.9837 -0.179688H29.1515Z" fill="#ED2851"/>
<path d="M29.3194 -0.179688L30.2154 48.1643H30.0508L29.1516 -0.179688H29.3194Z" fill="#ED2951"/>
<path d="M29.4872 -0.179688L30.3832 48.1643H30.2154L29.3194 -0.179688H29.4872Z" fill="#ED2A51"/>
<path d="M29.655 -0.179688L30.551 48.1643H30.3832L29.4872 -0.179688H29.655Z" fill="#ED2B51"/>
<path d="M29.8196 -0.179688L30.7189 48.1643H30.551L29.655 -0.179688H29.8196Z" fill="#ED2C51"/>
<path d="M29.9875 -0.179688L30.8867 48.1643H30.7189L29.8196 -0.179688H29.9875Z" fill="#EE2D51"/>
<path d="M30.1552 -0.179688L31.0545 48.1643H30.8866L29.9874 -0.179688H30.1552Z" fill="#EE2E50"/>
<path d="M30.3231 -0.179688L31.2223 48.1643H31.0545L30.1552 -0.179688H30.3231Z" fill="#EE2F50"/>
<path d="M30.4909 -0.179688L31.3901 48.1643H31.2223L30.3231 -0.179688H30.4909Z" fill="#EE3050"/>
<path d="M30.6587 -0.179688L31.5579 48.1643H31.3901L30.4909 -0.179688H30.6587Z" fill="#EE3150"/>
<path d="M30.8265 -0.179688L31.7225 48.1643H31.5579L30.6587 -0.179688H30.8265Z" fill="#EE3250"/>
<path d="M30.9943 -0.179688L31.8904 48.1643H31.7226L30.8265 -0.179688H30.9943Z" fill="#EE3350"/>
<path d="M31.1621 -0.179688L32.0582 48.1643H31.8903L30.9943 -0.179688H31.1621Z" fill="#EF3450"/>
<path d="M31.3268 -0.179688L32.226 48.1643H32.0582L31.1621 -0.179688H31.3268Z" fill="#EF354F"/>
<path d="M31.4946 -0.179688L32.3938 48.1643H32.226L31.3268 -0.179688H31.4946Z" fill="#EF364F"/>
<path d="M31.6624 -0.179688L32.5616 48.1643H32.3938L31.4946 -0.179688H31.6624Z" fill="#EF374F"/>
<path d="M31.8302 -0.179688L32.7294 48.1643H32.5616L31.6624 -0.179688H31.8302Z" fill="#EF384F"/>
<path d="M31.998 -0.179688L32.8972 48.1643H32.7294L31.8302 -0.179688H31.998Z" fill="#EF394F"/>
<path d="M32.1658 -0.179688L33.065 48.1643H32.8972L31.998 -0.179688H32.1658Z" fill="#EF3A4F"/>
<path d="M32.3336 -0.179688L33.2328 48.1643H33.065L32.1658 -0.179688H32.3336Z" fill="#F03B4F"/>
<path d="M32.5014 -0.179688L33.3975 48.1643H33.2328L32.3336 -0.179688H32.5014Z" fill="#F03C4E"/>
<path d="M32.6692 -0.179688L33.5653 48.1643H33.3975L32.5014 -0.179688H32.6692Z" fill="#F03D4E"/>
<path d="M32.8371 -0.179688L33.7331 48.1643H33.5653L32.6693 -0.179688H32.8371Z" fill="#F03E4E"/>
<path d="M33.0017 -0.179688L33.9009 48.1643H33.7331L32.8371 -0.179688H33.0017Z" fill="#F03F4E"/>
<path d="M33.1695 -0.179688L34.0687 48.1643H33.9009L33.0017 -0.179688H33.1695Z" fill="#F0404E"/>
<path d="M33.3373 -0.179688L34.2365 48.1643H34.0687L33.1695 -0.179688H33.3373Z" fill="#F1414E"/>
<path d="M33.5051 -0.179688L34.4043 48.1643H34.2365L33.3373 -0.179688H33.5051Z" fill="#F1424E"/>
<path d="M33.6729 -0.179688L34.5722 48.1643H34.4043L33.5051 -0.179688H33.6729Z" fill="#F1434D"/>
<path d="M33.8408 -0.179688L34.74 48.1643H34.5722L33.6729 -0.179688H33.8408Z" fill="#F1444D"/>
<path d="M34.0086 -0.179688L34.9078 48.1643H34.74L33.8408 -0.179688H34.0086Z" fill="#F1454D"/>
<path d="M34.1764 -0.179688L35.0724 48.1643H34.9078L34.0086 -0.179688H34.1764Z" fill="#F1464D"/>
<path d="M34.3442 -0.179688L35.2402 48.1643H35.0724L34.1764 -0.179688H34.3442Z" fill="#F1474D"/>
<path d="M34.512 -0.179688L35.408 48.1643H35.2402L34.3442 -0.179688H34.512Z" fill="#F2484D"/>
<path d="M34.6766 -0.179688L35.5759 48.1643H35.408L34.512 -0.179688H34.6766Z" fill="#F2494D"/>
<path d="M34.8444 -0.179688L35.7437 48.1643H35.5758L34.6766 -0.179688H34.8444Z" fill="#F24A4C"/>
<path d="M35.0123 -0.179688L35.9115 48.1643H35.7437L34.8445 -0.179688H35.0123Z" fill="#F24B4C"/>
<path d="M35.1801 -0.179688L36.0793 48.1643H35.9115L35.0123 -0.179688H35.1801Z" fill="#F24C4C"/>
<path d="M35.3479 -0.179688L36.2471 48.1643H36.0793L35.1801 -0.179688H35.3479Z" fill="#F24D4C"/>
<path d="M35.5157 -0.179688L36.4117 48.1643H36.2471L35.3479 -0.179688H35.5157Z" fill="#F34E4C"/>
<path d="M35.6835 -0.179688L36.5795 48.1643H36.4117L35.5157 -0.179688H35.6835Z" fill="#F34F4C"/>
<path d="M35.8513 -0.179688L36.7474 48.1643H36.5795L35.6835 -0.179688H35.8513Z" fill="#F3504C"/>
<path d="M36.016 -0.179688L36.9152 48.1643H36.7474L35.8513 -0.179688H36.016Z" fill="#F3514B"/>
<path d="M36.1838 -0.179688L37.083 48.1643H36.9152L36.016 -0.179688H36.1838Z" fill="#F3524B"/>
<path d="M36.3516 -0.179688L37.2508 48.1643H37.083L36.1838 -0.179688H36.3516Z" fill="#F3534B"/>
<path d="M36.5194 -0.179688L37.4186 48.1643H37.2508L36.3516 -0.179688H36.5194Z" fill="#F3544B"/>
<path d="M36.6872 -0.179688L37.5864 48.1643H37.4186L36.5194 -0.179688H36.6872Z" fill="#F4554B"/>
<path d="M36.855 -0.179688L37.7542 48.1643H37.5864L36.6872 -0.179688H36.855Z" fill="#F4564B"/>
<path d="M37.0228 -0.179688L37.922 48.1643H37.7542L36.855 -0.179688H37.0228Z" fill="#F4574B"/>
<path d="M37.1906 -0.179688L38.0899 48.1643H37.922L37.0228 -0.179688H37.1906Z" fill="#F4584A"/>
<path d="M37.3585 -0.179688L38.2545 48.1643H38.0899L37.1906 -0.179688H37.3585Z" fill="#F4594A"/>
<path d="M37.5263 -0.179688L38.4223 48.1643H38.2545L37.3585 -0.179688H37.5263Z" fill="#F45A4A"/>
<path d="M37.6941 -0.179688L38.5901 48.1643H38.4223L37.5262 -0.179688H37.6941Z" fill="#F45B4A"/>
<path d="M37.8587 -0.179688L38.7579 48.1643H38.5901L37.6941 -0.179688H37.8587Z" fill="#F55C4A"/>
<path d="M38.0265 -0.179688L38.9257 48.1643H38.7579L37.8587 -0.179688H38.0265Z" fill="#F55D4A"/>
<path d="M38.1943 -0.179688L39.0935 48.1643H38.9257L38.0265 -0.179688H38.1943Z" fill="#F55E4A"/>
<path d="M38.3621 -0.179688L39.2614 48.1643H39.0935L38.1943 -0.179688H38.3621Z" fill="#F55F49"/>
<path d="M38.53 -0.179688L39.4292 48.1643H39.2614L38.3622 -0.179688H38.53Z" fill="#F56049"/>
<path d="M38.6978 -0.179688L39.597 48.1643H39.4292L38.53 -0.179688H38.6978Z" fill="#F56149"/>
<path d="M38.8656 -0.179688L39.7616 48.1643H39.597L38.6978 -0.179688H38.8656Z" fill="#F66249"/>
<path d="M39.0334 -0.179688L39.8376 43.1279V48.1643H39.7616L38.8656 -0.179688H39.0334Z" fill="#F66349"/>
</g>
</g>
<mask id="mask10_0_62" style="mask-type:luminance" maskUnits="userSpaceOnUse" x="36" y="0" width="10" height="48">
<path d="M36.5131 0C36.5131 0.315561 36.4909 0.665834 36.4909 1.01611C36.4909 7.01177 38.3907 10.0569 40.2144 12.9885C41.9844 15.8285 43.6561 18.4982 43.6561 23.9669C43.6561 29.4355 41.9844 32.1147 40.2113 34.9452C38.3812 37.88 36.4878 40.9093 36.4878 46.9176C36.4878 47.2805 36.4878 47.6371 36.5099 47.9842H38.4097C38.4097 47.6371 38.3875 47.2868 38.3875 46.9176C38.3875 41.449 40.0593 38.773 41.826 35.9393C43.6498 33.0077 45.54 29.9783 45.54 23.9826C45.54 17.987 43.6403 14.945 41.8165 12.0103C40.0498 9.17021 38.378 6.50056 38.378 1.03188C38.378 0.681612 38.378 0.343962 38.3938 0.0157781L36.5131 0Z" fill="white"/>
</mask>
<g mask="url(#mask10_0_62)">
<mask id="mask11_0_62" style="mask-type:luminance" maskUnits="userSpaceOnUse" x="35" y="-1" width="12" height="50">
<path d="M45.537 -0.166275L35.5967 0.0170288L36.4903 48.1508L46.4306 47.9675L45.537 -0.166275Z" fill="white"/>
</mask>
<g mask="url(#mask11_0_62)">
<path d="M35.6835 -0.167297L36.5796 48.1514H36.4118L35.6012 4.43043V-0.167297H35.6835Z" fill="#F34F4C"/>
<path d="M35.8513 -0.167297L36.7474 48.1514H36.5796L35.6835 -0.167297H35.8513Z" fill="#F3504C"/>
<path d="M36.0191 -0.167297L36.9152 48.1514H36.7474L35.8513 -0.167297H36.0191Z" fill="#F3514B"/>
<path d="M36.1838 -0.167297L37.083 48.1514H36.9152L36.0191 -0.167297H36.1838Z" fill="#F3524B"/>
<path d="M36.3516 -0.167297L37.2508 48.1514H37.083L36.1838 -0.167297H36.3516Z" fill="#F3534B"/>
<path d="M36.5194 -0.167297L37.4186 48.1514H37.2508L36.3516 -0.167297H36.5194Z" fill="#F3544B"/>
<path d="M36.6872 -0.167297L37.5864 48.1514H37.4186L36.5194 -0.167297H36.6872Z" fill="#F4554B"/>
<path d="M36.855 -0.167297L37.7542 48.1514H37.5864L36.6872 -0.167297H36.855Z" fill="#F4564B"/>
<path d="M37.0229 -0.167297L37.9221 48.1514H37.7543L36.855 -0.167297H37.0229Z" fill="#F4574B"/>
<path d="M37.1906 -0.167297L38.0867 48.1514H37.922L37.0228 -0.167297H37.1906Z" fill="#F4584A"/>
<path d="M37.3585 -0.167297L38.2545 48.1514H38.0867L37.1906 -0.167297H37.3585Z" fill="#F4594A"/>
<path d="M37.5263 -0.167297L38.4223 48.1514H38.2545L37.3585 -0.167297H37.5263Z" fill="#F45A4A"/>
<path d="M37.6941 -0.167297L38.5901 48.1514H38.4223L37.5263 -0.167297H37.6941Z" fill="#F45B4A"/>
<path d="M37.8619 -0.167297L38.7579 48.1514H38.5901L37.6941 -0.167297H37.8619Z" fill="#F55C4A"/>
<path d="M38.0265 -0.167297L38.9257 48.1514H38.7579L37.8619 -0.167297H38.0265Z" fill="#F55D4A"/>
<path d="M38.1944 -0.167297L39.0936 48.1514H38.9258L38.0266 -0.167297H38.1944Z" fill="#F55E4A"/>
<path d="M38.3621 -0.167297L39.2614 48.1514H39.0935L38.1943 -0.167297H38.3621Z" fill="#F55F49"/>
<path d="M38.53 -0.167297L39.4292 48.1514H39.2614L38.3622 -0.167297H38.53Z" fill="#F56049"/>
<path d="M38.6978 -0.167297L39.5938 48.1514H39.4292L38.53 -0.167297H38.6978Z" fill="#F56149"/>
<path d="M38.8656 -0.167297L39.7616 48.1514H39.5938L38.6978 -0.167297H38.8656Z" fill="#F66249"/>
<path d="M39.0334 -0.167297L39.9295 48.1514H39.7616L38.8656 -0.167297H39.0334Z" fill="#F66349"/>
<path d="M39.2012 -0.167297L40.0972 48.1514H39.9294L39.0334 -0.167297H39.2012Z" fill="#F66449"/>
<path d="M39.3658 -0.167297L40.2651 48.1514H40.0972L39.2012 -0.167297H39.3658Z" fill="#F66549"/>
<path d="M39.5337 -0.167297L40.4329 48.1514H40.2651L39.3658 -0.167297H39.5337Z" fill="#F66648"/>
<path d="M39.7015 -0.167297L40.6007 48.1514H40.4329L39.5337 -0.167297H39.7015Z" fill="#F66748"/>
<path d="M39.8693 -0.167297L40.7685 48.1514H40.6007L39.7015 -0.167297H39.8693Z" fill="#F66848"/>
<path d="M40.0371 -0.167297L40.9363 48.1514H40.7685L39.8693 -0.167297H40.0371Z" fill="#F76948"/>
<path d="M40.2049 -0.167297L41.1041 48.1514H40.9363L40.0371 -0.167297H40.2049Z" fill="#F76B48"/>
<path d="M40.3727 -0.167297L41.2688 48.1514H41.1041L40.2049 -0.167297H40.3727Z" fill="#F76C48"/>
<path d="M40.5405 -0.167297L41.4366 48.1514H41.2688L40.3727 -0.167297H40.5405Z" fill="#F76D48"/>
<path d="M40.7083 -0.167297L41.6044 48.1514H41.4366L40.5405 -0.167297H40.7083Z" fill="#F76E47"/>
<path d="M40.8762 -0.167297L41.7722 48.1514H41.6044L40.7083 -0.167297H40.8762Z" fill="#F76F47"/>
<path d="M41.044 -0.167297L41.94 48.1514H41.7722L40.8762 -0.167297H41.044Z" fill="#F77047"/>
<path d="M41.2086 -0.167297L42.1078 48.1514H41.94L41.044 -0.167297H41.2086Z" fill="#F87147"/>
<path d="M41.3764 -0.167297L42.2756 48.1514H42.1078L41.2086 -0.167297H41.3764Z" fill="#F87247"/>
<path d="M41.5442 -0.167297L42.4435 48.1514H42.2756L41.3764 -0.167297H41.5442Z" fill="#F87347"/>
<path d="M41.712 -0.167297L42.6112 48.1514H42.4434L41.5442 -0.167297H41.712Z" fill="#F87447"/>
<path d="M41.8798 -0.167297L42.7759 48.1514H42.6112L41.712 -0.167297H41.8798Z" fill="#F87546"/>
<path d="M42.0477 -0.167297L42.9437 48.1514H42.7759L41.8799 -0.167297H42.0477Z" fill="#F87646"/>
<path d="M42.2155 -0.167297L43.1115 48.1514H42.9437L42.0477 -0.167297H42.2155Z" fill="#F97746"/>
<path d="M42.3833 -0.167297L43.2793 48.1514H43.1115L42.2155 -0.167297H42.3833Z" fill="#F97846"/>
<path d="M42.5479 -0.167297L43.4471 48.1514H43.2793L42.3833 -0.167297H42.5479Z" fill="#F97946"/>
<path d="M42.7157 -0.167297L43.6149 48.1514H43.4471L42.5479 -0.167297H42.7157Z" fill="#F97A46"/>
<path d="M42.8835 -0.167297L43.7828 48.1514H43.6149L42.7157 -0.167297H42.8835Z" fill="#F97B46"/>
<path d="M43.0514 -0.167297L43.9506 48.1514H43.7828L42.8835 -0.167297H43.0514Z" fill="#F97C45"/>
<path d="M43.2192 -0.167297L44.1184 48.1514H43.9506L43.0514 -0.167297H43.2192Z" fill="#F97D45"/>
<path d="M43.387 -0.167297L44.2862 48.1514H44.1184L43.2192 -0.167297H43.387Z" fill="#FA7E45"/>
<path d="M43.5548 -0.167297L44.4509 48.1514H44.2862L43.387 -0.167297H43.5548Z" fill="#FA7F45"/>
<path d="M43.7226 -0.167297L44.6186 48.1514H44.4508L43.5548 -0.167297H43.7226Z" fill="#FA8045"/>
<path d="M43.8904 -0.167297L44.7865 48.1514H44.6186L43.7226 -0.167297H43.8904Z" fill="#FA8145"/>
<path d="M44.0582 -0.167297L44.9543 48.1514H44.7865L43.8904 -0.167297H44.0582Z" fill="#FA8245"/>
<path d="M44.226 -0.167297L45.1221 48.1514H44.9543L44.0582 -0.167297H44.226Z" fill="#FA8344"/>
<path d="M44.3907 -0.167297L45.2899 48.1514H45.1221L44.226 -0.167297H44.3907Z" fill="#FA8444"/>
<path d="M44.5585 -0.167297L45.4577 48.1514H45.2899L44.3907 -0.167297H44.5585Z" fill="#FB8544"/>
<path d="M44.7263 -0.167297L45.6255 48.1514H45.4577L44.5585 -0.167297H44.7263Z" fill="#FB8644"/>
<path d="M44.8941 -0.167297L45.7933 48.1514H45.6255L44.7263 -0.167297H44.8941Z" fill="#FB8744"/>
<path d="M45.0619 -0.167297L45.9611 48.1514H45.7933L44.8941 -0.167297H45.0619Z" fill="#FB8844"/>
<path d="M45.2297 -0.167297L46.1258 48.1514H45.9611L45.0619 -0.167297H45.2297Z" fill="#FB8944"/>
<path d="M45.3975 -0.167297L46.2936 48.1514H46.1258L45.2297 -0.167297H45.3975Z" fill="#FB8A43"/>
<path d="M45.5654 -0.167297L46.4361 46.6683V48.1514H46.2936L45.3976 -0.167297H45.5654Z" fill="#FC8B43"/>
</g>
</g>
<mask id="mask12_0_62" style="mask-type:luminance" maskUnits="userSpaceOnUse" x="43" y="0" width="10" height="48">
<path d="M43.8113 0C43.7923 0.315561 43.7859 0.665834 43.7859 1.01611C43.7859 6.92657 45.654 9.91178 47.4588 12.8055C49.2635 15.6992 50.9417 18.3972 50.9417 23.9669C50.9417 29.5365 49.2445 32.2503 47.4588 35.1314C45.673 38.0125 43.7859 41.0103 43.7859 46.9176C43.7859 47.2868 43.786 47.6371 43.8113 47.9842H44.9986C44.9986 47.6371 44.9796 47.2868 44.9796 46.9176C44.9796 41.348 46.6767 38.6341 48.4625 35.7562C50.2482 32.8783 52.1353 29.8773 52.1353 23.9669C52.1353 18.0564 50.2672 15.0712 48.4625 12.1743C46.6577 9.2775 44.9796 6.5826 44.9796 1.01611C44.9796 0.665834 44.9796 0.328184 44.9986 0L43.8113 0Z" fill="white"/>
</mask>
<g mask="url(#mask12_0_62)">
<mask id="mask13_0_62" style="mask-type:luminance" maskUnits="userSpaceOnUse" x="42" y="-1" width="12" height="50">
<path d="M52.144 -0.152331L42.897 0.0181885L43.7903 48.1393L53.0373 47.9688L52.144 -0.152331Z" fill="white"/>
</mask>
<g mask="url(#mask13_0_62)">
<path d="M43.0514 -0.154663L43.9506 48.1388H43.7828L42.8962 0.479615V-0.154663H43.0514Z" fill="#F97C45"/>
<path d="M43.2192 -0.154663L44.1184 48.1388H43.9506L43.0514 -0.154663H43.2192Z" fill="#F97D45"/>
<path d="M43.387 -0.154663L44.2862 48.1388H44.1184L43.2192 -0.154663H43.387Z" fill="#FA7E45"/>
<path d="M43.5548 -0.154663L44.4509 48.1388H44.2862L43.387 -0.154663H43.5548Z" fill="#FA7F45"/>
<path d="M43.7226 -0.154663L44.6187 48.1388H44.4509L43.5548 -0.154663H43.7226Z" fill="#FA8045"/>
<path d="M43.8904 -0.154663L44.7865 48.1388H44.6187L43.7226 -0.154663H43.8904Z" fill="#FA8145"/>
<path d="M44.0583 -0.154663L44.9543 48.1388H44.7865L43.8904 -0.154663H44.0583Z" fill="#FA8245"/>
<path d="M44.2261 -0.154663L45.1221 48.1388H44.9543L44.0583 -0.154663H44.2261Z" fill="#FA8344"/>
<path d="M44.3907 -0.154663L45.2899 48.1388H45.1221L44.2261 -0.154663H44.3907Z" fill="#FA8444"/>
<path d="M44.5585 -0.154663L45.4577 48.1388H45.2899L44.3907 -0.154663H44.5585Z" fill="#FB8544"/>
<path d="M44.7263 -0.154663L45.6255 48.1388H45.4577L44.5585 -0.154663H44.7263Z" fill="#FB8644"/>
<path d="M44.8941 -0.154663L45.7933 48.1388H45.6255L44.7263 -0.154663H44.8941Z" fill="#FB8744"/>
<path d="M45.0619 -0.154663L45.958 48.1388H45.7933L44.8941 -0.154663H45.0619Z" fill="#FB8844"/>
<path d="M45.2298 -0.154663L46.1258 48.1388H45.958L45.062 -0.154663H45.2298Z" fill="#FB8944"/>
<path d="M45.3976 -0.154663L46.2936 48.1388H46.1258L45.2298 -0.154663H45.3976Z" fill="#FB8A43"/>
<path d="M45.5654 -0.154663L46.4614 48.1388H46.2936L45.3976 -0.154663H45.5654Z" fill="#FC8B43"/>
<path d="M45.7332 -0.154663L46.6292 48.1388H46.4614L45.5654 -0.154663H45.7332Z" fill="#FC8C43"/>
<path d="M45.901 -0.154663L46.797 48.1388H46.6292L45.7332 -0.154663H45.901Z" fill="#FC8D43"/>
<path d="M46.0656 -0.154663L46.9649 48.1388H46.797L45.901 -0.154663H46.0656Z" fill="#FC8E43"/>
<path d="M46.2335 -0.154663L47.1327 48.1388H46.9649L46.0656 -0.154663H46.2335Z" fill="#FC8F43"/>
<path d="M46.4013 -0.154663L47.3005 48.1388H47.1327L46.2335 -0.154663H46.4013Z" fill="#FC9043"/>
<path d="M46.5691 -0.154663L47.4651 48.1388H47.3005L46.4013 -0.154663H46.5691Z" fill="#FC9142"/>
<path d="M46.7369 -0.154663L47.6329 48.1388H47.4651L46.5691 -0.154663H46.7369Z" fill="#FD9242"/>
<path d="M46.9047 -0.154663L47.8007 48.1388H47.6329L46.7369 -0.154663H46.9047Z" fill="#FD9342"/>
<path d="M47.0725 -0.154663L47.9686 48.1388H47.8007L46.9047 -0.154663H47.0725Z" fill="#FD9442"/>
<path d="M47.2403 -0.154663L48.1364 48.1388H47.9686L47.0725 -0.154663H47.2403Z" fill="#FD9542"/>
<path d="M47.4081 -0.154663L48.3042 48.1388H48.1364L47.2403 -0.154663H47.4081Z" fill="#FD9642"/>
<path d="M47.5728 -0.154663L48.472 48.1388H48.3042L47.4081 -0.154663H47.5728Z" fill="#FD9742"/>
<path d="M47.7406 -0.154663L48.6398 48.1388H48.472L47.5728 -0.154663H47.7406Z" fill="#FD9841"/>
<path d="M47.9084 -0.154663L48.8076 48.1388H48.6398L47.7406 -0.154663H47.9084Z" fill="#FE9941"/>
<path d="M48.0762 -0.154663L48.9754 48.1388H48.8076L47.9084 -0.154663H48.0762Z" fill="#FE9A41"/>
<path d="M48.244 -0.154663L49.1401 48.1388H48.9754L48.0762 -0.154663H48.244Z" fill="#FE9B41"/>
<path d="M48.4118 -0.154663L49.3079 48.1388H49.1401L48.244 -0.154663H48.4118Z" fill="#FE9C41"/>
<path d="M48.5796 -0.154663L49.4757 48.1388H49.3079L48.4118 -0.154663H48.5796Z" fill="#FE9D41"/>
<path d="M48.7475 -0.154663L49.6435 48.1388H49.4757L48.5797 -0.154663H48.7475Z" fill="#FE9E41"/>
<path d="M48.9153 -0.154663L49.8113 48.1388H49.6435L48.7475 -0.154663H48.9153Z" fill="#FF9F40"/>
<path d="M49.0799 -0.154663L49.9791 48.1388H49.8113L48.9153 -0.154663H49.0799Z" fill="#FFA040"/>
<path d="M49.2477 -0.154663L50.1469 48.1388H49.9791L49.0799 -0.154663H49.2477Z" fill="#FFA140"/>
<path d="M49.4155 -0.154663L50.3147 48.1388H50.1469L49.2477 -0.154663H49.4155Z" fill="#FFA240"/>
<path d="M50.3147 48.1388L49.4155 -0.154663H53.0377V48.1388H50.3147Z" fill="#FFA240"/>
</g>
</g>
</svg>
